<svg xmlns="http://www.w3.org/2000/svg" style="display: none;"><symbol id="xlsx" viewBox="0 0 548.291 548.291"><title>xlsx</title><path d="M486.206,196.121H473.04v-63.525c0-0.396-0.062-0.795-0.109-1.2c-0.021-2.52-0.829-4.997-2.556-6.96L364.657,3.677 c-0.033-0.031-0.064-0.042-0.085-0.075c-0.63-0.704-1.364-1.29-2.143-1.796c-0.229-0.154-0.461-0.283-0.702-0.419 c-0.672-0.365-1.387-0.672-2.121-0.893c-0.2-0.052-0.379-0.134-0.577-0.186C358.23,0.118,357.401,0,356.562,0H96.757 C84.894,0,75.256,9.649,75.256,21.502v174.613H62.092c-16.971,0-30.732,13.756-30.732,30.733v159.812 c0,16.961,13.761,30.731,30.732,30.731h13.164V526.79c0,11.854,9.638,21.501,21.501,21.501h354.776 c11.853,0,21.501-9.647,21.501-21.501V417.392h13.166c16.966,0,30.729-13.764,30.729-30.731V226.854 C516.93,209.872,503.176,196.121,486.206,196.121z M96.757,21.502h249.054v110.006c0,5.94,4.817,10.751,10.751,10.751h94.972 v53.861H96.757V21.502z M314.576,314.661c-21.124-7.359-34.908-19.045-34.908-37.544c0-21.698,18.11-38.297,48.116-38.297 c14.331,0,24.903,3.014,32.442,6.413l-6.411,23.2c-5.091-2.446-14.146-6.037-26.598-6.037s-18.488,5.662-18.488,12.266 c0,8.115,7.171,11.696,23.58,17.921c22.446,8.305,33.013,20,33.013,37.921c0,21.323-16.415,39.435-51.318,39.435 c-14.524,0-28.861-3.769-36.031-7.737l5.843-23.77c7.738,3.958,19.627,7.927,31.885,7.927c13.218,0,20.188-5.47,20.188-13.774 C335.894,324.667,329.858,320.13,314.576,314.661z M265.917,343.9v24.157h-79.439V240.882h28.877V343.9H265.917z M94.237,368.057 H61.411l36.788-64.353l-35.473-62.827h33.021l11.125,23.21c3.774,7.736,6.606,13.954,9.628,21.135h0.367 c3.027-8.115,5.477-13.775,8.675-21.135l10.756-23.21h32.827l-35.848,62.066l37.74,65.103h-33.202l-11.515-23.022 c-4.709-8.855-7.73-15.465-11.316-22.824h-0.375c-2.645,7.359-5.845,13.969-9.811,22.824L94.237,368.057z M451.534,520.968H96.757 V417.392h354.776V520.968z M451.728,368.057l-11.512-23.022c-4.715-8.863-7.733-15.465-11.319-22.825h-0.366 c-2.646,7.36-5.858,13.962-9.827,22.825l-10.551,23.022h-32.836l36.788-64.353l-35.471-62.827h33.02l11.139,23.21 c3.77,7.736,6.593,13.954,9.618,21.135h0.377c3.013-8.115,5.459-13.775,8.671-21.135l10.752-23.21h32.835l-35.849,62.066 l37.733,65.103h-33.202V368.057z"/></symbol><symbol id="doc" viewBox="0 0 548.29 548.291"><title>doc</title><path d="M486.2,196.124h-13.164V132.59c0-0.396-0.064-0.795-0.116-1.196c-0.021-2.523-0.824-5-2.551-6.963L364.656,3.677 c-0.031-0.031-0.064-0.042-0.085-0.075c-0.629-0.704-1.364-1.29-2.141-1.796c-0.231-0.154-0.462-0.283-0.704-0.418 c-0.672-0.366-1.386-0.671-2.121-0.892c-0.199-0.055-0.377-0.134-0.576-0.188C358.229,0.118,357.4,0,356.562,0H96.757 C84.893,0,75.256,9.649,75.256,21.502v174.616H62.093c-16.972,0-30.733,13.753-30.733,30.73v159.812 c0,16.961,13.761,30.731,30.733,30.731h13.163V526.79c0,11.854,9.637,21.501,21.501,21.501h354.777 c11.853,0,21.502-9.647,21.502-21.501V417.392H486.2c16.966,0,30.729-13.764,30.729-30.731V226.854 C516.93,209.872,503.166,196.124,486.2,196.124z M96.757,21.502h249.053v110.006c0,5.943,4.818,10.751,10.751,10.751h94.973v53.864 H96.757V21.502z M354.739,298.02c0,48.877-29.634,78.505-73.208,78.505c-44.229,0-70.106-33.392-70.106-75.849 c0-44.677,28.528-78.069,72.537-78.069C329.736,222.607,354.739,256.88,354.739,298.02z M64.345,373.432V227.037 c12.384-1.995,28.525-3.102,45.562-3.102c28.305,0,46.657,5.089,61.033,15.921c15.48,11.503,25.216,29.861,25.216,56.174 c0,28.53-10.392,48.21-24.764,60.373c-15.704,13.05-39.591,19.238-68.786,19.238C85.125,375.642,72.746,374.536,64.345,373.432z M451.534,520.962H96.757v-103.57h354.777V520.962z M453.16,348.447c10.174,0,21.455-2.223,28.085-4.867l5.093,26.315 c-6.196,3.108-20.127,6.409-38.258,6.409c-51.528,0-78.069-32.063-78.069-74.526c0-50.853,36.267-79.171,81.375-79.171 c17.47,0,30.751,3.538,36.726,6.638l-6.861,26.754c-6.851-2.872-16.362-5.531-28.309-5.531c-26.758,0-47.55,16.147-47.55,49.316 C405.387,329.642,423.082,348.447,453.16,348.447z"/><path d="M160.322,297.137c0.221-30.968-17.917-47.331-46.88-47.331c-7.52,0-12.396,0.661-15.265,1.329v97.532 c2.868,0.665,7.52,0.665,11.724,0.665C140.417,349.548,160.322,332.739,160.322,297.137z"/><path d="M247.032,300.004c0,29.202,13.714,49.765,36.269,49.765c22.782,0,35.827-21.68,35.827-50.646 c0-26.768-12.824-49.758-36.048-49.758C260.311,249.371,247.032,271.043,247.032,300.004z"/></symbol><symbol id="json" viewBox="0 0 512 512"><title>json</title><path d="M503.467,187.733H409.6v-68.267H298.667c-4.71,0-8.533-3.823-8.533-8.533V0H8.533C3.823,0,0,3.823,0,8.533v494.933 C0,508.177,3.823,512,8.533,512h392.533c4.71,0,8.533-3.823,8.533-8.533V409.6h93.867c4.71,0,8.533-3.823,8.533-8.533v-204.8 C512,191.556,508.177,187.733,503.467,187.733z M494.933,392.533h-93.867H51.2V204.8h349.867h93.867V392.533z"/><path d="M204.8,238.933c14.114,0,25.6,11.486,25.6,25.6c0,4.71,3.823,8.533,8.533,8.533s8.533-3.823,8.533-8.533 c0-23.526-19.14-42.667-42.667-42.667c-23.526,0-42.667,19.14-42.667,42.667c0,23.526,19.14,42.667,42.667,42.667 c14.114,0,25.6,11.486,25.6,25.6c0,14.114-11.486,25.6-25.6,25.6s-25.6-11.486-25.6-25.6c0-4.71-3.823-8.533-8.533-8.533 s-8.533,3.823-8.533,8.533c0,23.526,19.14,42.667,42.667,42.667c23.526,0,42.667-19.14,42.667-42.667 c0-23.526-19.14-42.667-42.667-42.667c-14.114,0-25.6-11.486-25.6-25.6S190.686,238.933,204.8,238.933z"/><path d="M128,230.4c-4.71,0-8.533,3.823-8.533,8.533v102.4c0,9.412-7.654,17.067-17.067,17.067 c-9.412,0-17.067-7.654-17.067-17.067c0-4.71-3.823-8.533-8.533-8.533s-8.533,3.823-8.533,8.533 c0,18.825,15.309,34.133,34.133,34.133c18.825,0,34.133-15.309,34.133-34.133v-102.4C136.533,234.223,132.71,230.4,128,230.4z"/><path d="M315.733,221.867H307.2c-18.825,0-34.133,15.309-34.133,34.133v85.333c0,18.825,15.309,34.133,34.133,34.133h8.533 c18.825,0,34.133-15.309,34.133-34.133V256C349.867,237.175,334.558,221.867,315.733,221.867z M332.8,341.333 c0,9.412-7.654,17.067-17.067,17.067H307.2c-9.412,0-17.067-7.654-17.067-17.067V256c0-9.412,7.654-17.067,17.067-17.067h8.533 c9.412,0,17.067,7.654,17.067,17.067V341.333z"/><path d="M381.646,222.196c-3.661,1.05-6.178,4.395-6.178,8.201V366.93c0,4.719,3.823,8.533,8.533,8.533 c4.71,0,8.533-3.814,8.533-8.533V260.152l69.564,111.3c1.587,2.543,4.352,4.011,7.236,4.011c0.785,0,1.57-0.102,2.355-0.324 c3.652-1.05,6.178-4.395,6.178-8.209V230.397c0-4.71-3.823-8.533-8.533-8.533s-8.533,3.823-8.533,8.533v106.786l-69.564-111.3 C389.223,222.648,385.306,221.164,381.646,222.196z"/><polygon points="307.2,5 307.2,102.399 404.599,102.399 "/></symbol><symbol id="log" viewBox="0 0 548.291 548.291"><title>log</title><path d="M486.201,196.124h-13.166V132.59c0-0.396-0.062-0.795-0.115-1.196c-0.021-2.523-0.825-5-2.552-6.963L364.657,3.677 c-0.033-0.031-0.064-0.042-0.085-0.073c-0.63-0.707-1.364-1.292-2.143-1.795c-0.229-0.157-0.461-0.286-0.702-0.421 c-0.672-0.366-1.387-0.671-2.121-0.892c-0.2-0.055-0.379-0.136-0.577-0.188C358.23,0.118,357.401,0,356.562,0H96.757 C84.894,0,75.256,9.651,75.256,21.502v174.613H62.092c-16.971,0-30.732,13.756-30.732,30.733v159.812 c0,16.968,13.761,30.731,30.732,30.731h13.164V526.79c0,11.854,9.638,21.501,21.501,21.501h354.776 c11.853,0,21.501-9.647,21.501-21.501V417.392h13.166c16.966,0,30.729-13.764,30.729-30.731V226.854 C516.93,209.872,503.167,196.124,486.201,196.124z M96.757,21.502h249.054v110.009c0,5.939,4.817,10.75,10.751,10.75h94.972v53.861 H96.757V21.502z M317.816,303.427c0,47.77-28.973,76.746-71.558,76.746c-43.234,0-68.531-32.641-68.531-74.152 c0-43.679,27.887-76.319,70.906-76.319C293.389,229.702,317.816,263.213,317.816,303.427z M82.153,377.79V232.085h33.073v118.039 h57.944v27.66H82.153V377.79z M451.534,520.962H96.757v-103.57h354.776V520.962z M461.176,371.092 c-10.162,3.454-29.402,8.209-48.641,8.209c-26.589,0-45.833-6.698-59.24-19.664c-13.396-12.535-20.75-31.568-20.529-52.967 c0.214-48.436,35.448-76.108,83.229-76.108c18.814,0,33.292,3.688,40.431,7.139l-6.92,26.37 c-7.999-3.457-17.942-6.268-33.942-6.268c-27.449,0-48.209,15.567-48.209,47.134c0,30.049,18.807,47.771,45.831,47.771 c7.564,0,13.623-0.852,16.21-2.152v-30.488h-22.478v-25.723h54.258V371.092L461.176,371.092z"/><path d="M212.533,305.37c0,28.535,13.407,48.64,35.452,48.64c22.268,0,35.021-21.186,35.021-49.5 c0-26.153-12.539-48.655-35.237-48.655C225.504,255.854,212.533,277.047,212.533,305.37z"/></symbol><symbol id="volume-up-interface-symbol" viewBox="0 0 475.082 475.081"><title>volume-up-interface-symbol</title><path d="M200.999,63.952c-4.946,0-9.229,1.812-12.847,5.426l-95.074,95.075H18.276c-4.952,0-9.234,1.812-12.85,5.424 C1.809,173.493,0,177.778,0,182.726v109.63c0,4.949,1.809,9.233,5.426,12.848c3.619,3.617,7.902,5.427,12.85,5.427h74.798 l95.074,95.078c3.617,3.61,7.9,5.424,12.847,5.424c4.952,0,9.234-1.813,12.85-5.424c3.617-3.614,5.426-7.901,5.426-12.847V82.228 c0-4.948-1.809-9.234-5.422-12.85C210.23,65.764,205.951,63.952,200.999,63.952z"/><path d="M316.769,277.936c8.093-12.467,12.135-25.93,12.135-40.395s-4.042-27.992-12.135-40.556 c-8.094-12.562-18.791-21.41-32.121-26.551c-1.902-0.949-4.284-1.427-7.139-1.427c-4.944,0-9.232,1.762-12.847,5.282 c-3.61,3.521-5.427,7.852-5.427,12.99c0,3.997,1.143,7.376,3.432,10.137c2.283,2.762,5.041,5.142,8.282,7.139 c3.23,1.998,6.468,4.188,9.708,6.567c3.238,2.38,5.996,5.758,8.278,10.135c2.276,4.38,3.426,9.804,3.426,16.277 c0,6.471-1.143,11.896-3.426,16.276c-2.282,4.381-5.04,7.755-8.278,10.14c-3.24,2.379-6.478,4.569-9.708,6.567 c-3.241,1.992-5.999,4.377-8.282,7.132c-2.282,2.765-3.432,6.143-3.432,10.14c0,5.144,1.816,9.47,5.427,12.99 c3.614,3.521,7.902,5.288,12.847,5.288c2.854,0,5.236-0.479,7.139-1.424C297.978,299.304,308.679,290.403,316.769,277.936z"/><path d="M377.728,318.194c16.18-24.646,24.273-51.531,24.273-80.654c0-29.124-8.094-56.005-24.273-80.666 c-16.177-24.645-37.6-42.583-64.241-53.815c-2.471-0.95-4.948-1.427-7.416-1.427c-4.948,0-9.236,1.809-12.854,5.426 c-3.613,3.616-5.424,7.898-5.424,12.847c0,7.424,3.713,13.039,11.139,16.849c10.657,5.518,17.888,9.705,21.693,12.559 c14.089,10.28,25.077,23.173,32.976,38.686c7.898,15.514,11.848,32.026,11.848,49.537c0,17.512-3.949,34.023-11.848,49.536 c-7.898,15.516-18.894,28.407-32.976,38.684c-3.806,2.857-11.036,7.043-21.693,12.563c-7.426,3.809-11.139,9.424-11.139,16.847 c0,4.948,1.811,9.236,5.424,12.847c3.617,3.621,7.991,5.432,13.131,5.432c2.286,0,4.668-0.483,7.139-1.428 C340.128,360.783,361.551,342.844,377.728,318.194z"/><path d="M438.824,116.92c-24.171-36.638-56.343-63.622-96.505-80.943c-2.471-0.95-4.948-1.425-7.416-1.425 c-4.948,0-9.236,1.811-12.847,5.424c-3.621,3.615-5.432,7.902-5.432,12.85c0,6.851,3.714,12.469,11.14,16.846 c1.335,0.756,3.467,1.755,6.42,2.996c2.95,1.232,5.089,2.231,6.427,2.993c8.754,4.755,16.56,9.611,23.418,14.56 c23.407,17.318,41.682,38.922,54.816,64.809c13.134,25.885,19.697,53.388,19.697,82.512c0,29.129-6.563,56.626-19.697,82.512 c-13.131,25.889-31.409,47.496-54.816,64.809c-6.858,4.948-14.664,9.801-23.418,14.562c-1.338,0.756-3.477,1.752-6.427,2.99 c-2.953,1.232-5.085,2.231-6.42,2.998c-7.426,4.374-11.14,9.993-11.14,16.844c0,4.949,1.811,9.233,5.432,12.848 c3.61,3.617,7.898,5.427,12.847,5.427c2.468,0,4.945-0.476,7.416-1.431c40.162-17.315,72.334-44.3,96.505-80.94 c24.174-36.638,36.258-76.849,36.258-120.625S463.001,153.554,438.824,116.92z"/></symbol><symbol id="share" viewBox="0 0 481.6 481.6"><title>share</title><path d="M381.6,309.4c-27.7,0-52.4,13.2-68.2,33.6l-132.3-73.9c3.1-8.9,4.8-18.5,4.8-28.4c0-10-1.7-19.5-4.9-28.5l132.2-73.8 c15.7,20.5,40.5,33.8,68.3,33.8c47.4,0,86.1-38.6,86.1-86.1S429,0,381.5,0s-86.1,38.6-86.1,86.1c0,10,1.7,19.6,4.9,28.5 l-132.1,73.8c-15.7-20.6-40.5-33.8-68.3-33.8c-47.4,0-86.1,38.6-86.1,86.1s38.7,86.1,86.2,86.1c27.8,0,52.6-13.3,68.4-33.9 l132.2,73.9c-3.2,9-5,18.7-5,28.7c0,47.4,38.6,86.1,86.1,86.1s86.1-38.6,86.1-86.1S429.1,309.4,381.6,309.4z M381.6,27.1 c32.6,0,59.1,26.5,59.1,59.1s-26.5,59.1-59.1,59.1s-59.1-26.5-59.1-59.1S349.1,27.1,381.6,27.1z M100,299.8 c-32.6,0-59.1-26.5-59.1-59.1s26.5-59.1,59.1-59.1s59.1,26.5,59.1,59.1S132.5,299.8,100,299.8z M381.6,454.5 c-32.6,0-59.1-26.5-59.1-59.1c0-32.6,26.5-59.1,59.1-59.1s59.1,26.5,59.1,59.1C440.7,428,414.2,454.5,381.6,454.5z"/></symbol><symbol id="twitter" viewBox="0 -47 512.00004 512"><title>twitter</title><path d="m512 55.964844c-32.207031 1.484375-31.503906 1.363281-35.144531 1.667968l19.074219-54.472656s-59.539063 21.902344-74.632813 25.820313c-39.640625-35.628907-98.5625-37.203125-140.6875-11.3125-34.496094 21.207031-53.011719 57.625-46.835937 100.191406-67.136719-9.316406-123.703126-41.140625-168.363282-94.789063l-14.125-16.964843-10.554687 19.382812c-13.339844 24.492188-17.769531 52.496094-12.476563 78.851563 2.171875 10.8125 5.863282 21.125 10.976563 30.78125l-12.117188-4.695313-1.4375 20.246094c-1.457031 20.566406 5.390625 44.574219 18.320313 64.214844 3.640625 5.53125 8.328125 11.605469 14.269531 17.597656l-6.261719-.960937 7.640625 23.199218c10.042969 30.480469 30.902344 54.0625 57.972657 67.171875-27.035157 11.472657-48.875 18.792969-84.773438 30.601563l-32.84375 10.796875 30.335938 16.585937c11.566406 6.324219 52.4375 27.445313 92.820312 33.78125 89.765625 14.078125 190.832031 2.613282 258.871094-58.664062 57.308594-51.613282 76.113281-125.03125 72.207031-201.433594-.589844-11.566406 2.578125-22.605469 8.921875-31.078125 12.707031-16.964844 48.765625-66.40625 48.84375-66.519531zm-72.832031 48.550781c-10.535157 14.066406-15.8125 32.03125-14.867188 50.578125 3.941407 77.066406-17.027343 136.832031-62.328125 177.628906-52.917968 47.660156-138.273437 66.367188-234.171875 51.324219-17.367187-2.722656-35.316406-8.820313-50.171875-14.910156 30.097656-10.355469 53.339844-19.585938 90.875-37.351563l52.398438-24.800781-57.851563-3.703125c-27.710937-1.773438-50.785156-15.203125-64.96875-37.007812 7.53125-.4375 14.792969-1.65625 22.023438-3.671876l55.175781-15.367187-55.636719-13.625c-27.035156-6.621094-42.445312-22.796875-50.613281-35.203125-5.363281-8.152344-8.867188-16.503906-10.96875-24.203125 5.578125 1.496094 12.082031 2.5625 22.570312 3.601563l51.496094 5.09375-40.800781-31.828126c-29.398437-22.929687-41.179687-57.378906-32.542969-90.496093 91.75 95.164062 199.476563 88.011719 210.320313 90.527343-2.386719-23.183593-2.449219-23.238281-3.074219-25.445312-13.886719-49.089844 16.546875-74.015625 30.273438-82.453125 28.671874-17.621094 74.183593-20.277344 105.707031 8.753906 6.808593 6.265625 16.015625 8.730469 24.632812 6.589844 7.734375-1.921875 14.082031-3.957031 20.296875-6.171875l-12.9375 36.945312 16.515625.011719c-3.117187 4.179688-6.855469 9.183594-11.351562 15.183594zm0 0"/></symbol><symbol id="cloud" viewBox="0 0 375.2 375.2"><title>cloud</title><path d="M349.6,157.4c-16-16-38-25.6-62.4-25.6c-2.8,0-5.6,0-8.4,0.4c-8.4-18.4-21.6-33.6-37.6-44.8c-18.4-12.8-40.4-20-63.6-20 c-27.6,0-52.8,10-72.8,26.8c-17.6,15.2-30.4,35.6-36,59.6c-18,2-34,10-46,22C8.8,189.8,0,209,0,230.6c0,21.2,8.8,40.8,22.8,54.8 c14,13.6,33.2,22.4,54.8,22.4h209.6c24.4,0,46.4-10,62.4-25.6c16-16,25.6-38,25.6-62.4C375.2,195.4,365.2,173.4,349.6,157.4z M333.6,267c-12.4,12.4-29.2,19.6-47.6,19.6H77.6c-15.6,0-30-6.4-40-16.8c-10.4-10.4-16.8-24.4-16.8-40c0-15.2,6.4-29.2,16.4-39.6 c10.4-10.4,24.4-16.8,40-16.8c1.6,0,3.2-0.4,4.4-1.2H82c2.4-1.6,4-4,4.4-7.2c3.2-22.4,14.8-41.6,30.8-55.2 c16-13.6,36.8-22,59.2-22c19.2,0,37.2,6,52,16.4c12,8.4,22,19.2,28.8,32.4c-2.4,0.8-4.8,2-7.2,2.8c-11.2,5.2-21.2,12.4-29.6,22 c-3.6,4.4-3.2,10.8,0.8,14.4c4.4,3.6,10.8,3.2,14.4-0.8c6.4-7.2,14-12.8,22.8-16.8c8.4-4,18-6,27.6-6c18.8,0,35.6,7.6,47.6,19.6 c12.4,12.4,19.6,29.2,19.6,47.6C353.2,238.2,345.6,255,333.6,267z"/></symbol><symbol id="arrow-up" viewBox="0 0 444.819 444.819"><title>arrow-up</title><path d="M434.252,208.708L248.387,22.843c-7.042-7.043-15.693-10.564-25.977-10.564c-10.467,0-19.036,3.521-25.697,10.564 L10.848,208.708C3.615,215.94,0,224.604,0,234.692c0,9.897,3.619,18.459,10.848,25.693l21.411,21.409 c6.854,7.231,15.42,10.855,25.697,10.855c10.278,0,18.842-3.624,25.697-10.855l83.939-83.651v200.998 c0,9.89,3.567,17.936,10.706,24.126c7.139,6.184,15.752,9.273,25.837,9.273h36.545c10.089,0,18.698-3.09,25.837-9.273 c7.139-6.188,10.712-14.236,10.712-24.126V198.144l83.938,83.651c6.848,7.231,15.413,10.855,25.7,10.855 c10.082,0,18.747-3.624,25.975-10.855l21.409-21.409c7.043-7.426,10.567-15.988,10.567-25.693 C444.819,224.795,441.295,216.134,434.252,208.708z"/></symbol><symbol id="plus" viewBox="0 0 491.86 491.86"><title>plus</title><path d="M465.167,211.614H280.245V26.691c0-8.424-11.439-26.69-34.316-26.69s-34.316,18.267-34.316,26.69v184.924H26.69 C18.267,211.614,0,223.053,0,245.929s18.267,34.316,26.69,34.316h184.924v184.924c0,8.422,11.438,26.69,34.316,26.69 s34.316-18.268,34.316-26.69V280.245H465.17c8.422,0,26.69-11.438,26.69-34.316S473.59,211.614,465.167,211.614z"/></symbol><symbol id="minimize" viewBox="0 0 512 512"><title>minimize</title><g> <g> <path d="M203.708,287.611H46.829c-11.422,0-20.682,9.259-20.682,20.682s9.26,20.682,20.682,20.682h136.197v136.197 c0,11.423,9.26,20.682,20.682,20.682c11.423,0,20.682-9.26,20.682-20.682V308.293C224.39,296.87,215.13,287.611,203.708,287.611z"/> </g> </g><g> <g> <path d="M465.172,183.025H328.976V46.828c0-11.422-9.259-20.682-20.682-20.682s-20.682,9.26-20.682,20.682v156.879 c0,11.422,9.259,20.682,20.682,20.682h156.879c11.423,0,20.682-9.26,20.682-20.682 C485.854,192.285,476.595,183.025,465.172,183.025z"/> </g> </g><g> <g> <path d="M505.943,6.058c-8.077-8.077-21.172-8.077-29.249,0L293.669,189.083c-8.076,8.077-8.076,21.172,0,29.249 c4.038,4.038,9.332,6.058,14.625,6.058c5.293,0,10.586-2.019,14.625-6.058L505.943,35.307 C514.019,27.23,514.019,14.135,505.943,6.058z"/> </g> </g><g> <g> <path d="M218.332,293.669c-8.076-8.077-21.172-8.077-29.249,0L6.058,476.693c-8.077,8.077-8.077,21.172,0,29.249 C10.096,509.982,15.39,512,20.683,512c5.293,0,10.586-2.019,14.625-6.058l183.025-183.025 C226.409,314.841,226.409,301.746,218.332,293.669z"/> </g> </g></symbol><symbol id="facebook" viewBox="-110 1 511 511.99996"><title>facebook</title><path d="m180 512h-81.992188c-13.695312 0-24.835937-11.140625-24.835937-24.835938v-184.9375h-47.835937c-13.695313 0-24.835938-11.144531-24.835938-24.835937v-79.246094c0-13.695312 11.140625-24.835937 24.835938-24.835937h47.835937v-39.683594c0-39.347656 12.355469-72.824219 35.726563-96.804688 23.476562-24.089843 56.285156-36.820312 94.878906-36.820312l62.53125.101562c13.671875.023438 24.792968 11.164063 24.792968 24.835938v73.578125c0 13.695313-11.136718 24.835937-24.828124 24.835937l-42.101563.015626c-12.839844 0-16.109375 2.574218-16.808594 3.363281-1.152343 1.308593-2.523437 5.007812-2.523437 15.222656v31.351563h58.269531c4.386719 0 8.636719 1.082031 12.289063 3.121093 7.878906 4.402344 12.777343 12.726563 12.777343 21.722657l-.03125 79.246093c0 13.6875-11.140625 24.828125-24.835937 24.828125h-58.46875v184.941406c0 13.695313-11.144532 24.835938-24.839844 24.835938zm-76.8125-30.015625h71.632812v-193.195313c0-9.144531 7.441407-16.582031 16.582032-16.582031h66.726562l.027344-68.882812h-66.757812c-9.140626 0-16.578126-7.4375-16.578126-16.582031v-44.789063c0-11.726563 1.191407-25.0625 10.042969-35.085937 10.695313-12.117188 27.550781-13.515626 39.300781-13.515626l36.921876-.015624v-63.226563l-57.332032-.09375c-62.023437 0-100.566406 39.703125-100.566406 103.609375v53.117188c0 9.140624-7.4375 16.582031-16.578125 16.582031h-56.09375v68.882812h56.09375c9.140625 0 16.578125 7.4375 16.578125 16.582031zm163.0625-451.867187h.003906zm0 0"/></symbol><symbol id="expand" viewBox="0 0 215.35 215.35"><title>expand</title><path d="M7.5,65.088c4.143,0,7.5-3.358,7.5-7.5V25.61l48.305,48.295c1.465,1.464,3.384,2.196,5.303,2.196 c1.92,0,3.84-0.732,5.304-2.197c2.929-2.929,2.929-7.678-0.001-10.606L25.604,15.002h31.985c4.142,0,7.5-3.358,7.5-7.5 c0-4.142-3.357-7.5-7.5-7.5H7.5c-4.143,0-7.5,3.358-7.5,7.5v50.087C0,61.73,3.357,65.088,7.5,65.088z"/><path d="M207.85,150.262c-4.143,0-7.5,3.358-7.5,7.5v31.979l-49.792-49.792c-2.93-2.929-7.678-2.929-10.607,0 c-2.929,2.929-2.929,7.678,0,10.606l49.791,49.791h-31.977c-4.143,0-7.5,3.358-7.5,7.5c0,4.142,3.357,7.5,7.5,7.5h50.086 c4.143,0,7.5-3.358,7.5-7.5v-50.084C215.35,153.62,211.992,150.262,207.85,150.262z"/><path d="M64.792,139.949L15.005,189.74v-31.978c0-4.142-3.357-7.5-7.5-7.5s-7.5,3.358-7.5,7.5v50.086c0,4.142,3.357,7.5,7.5,7.5 h50.084c4.142,0,7.5-3.358,7.5-7.5s-3.357-7.5-7.5-7.5H25.611l49.788-49.793c2.929-2.929,2.929-7.678-0.001-10.607 C72.471,137.02,67.722,137.02,64.792,139.949z"/><path d="M207.85,0.002h-50.086c-4.143,0-7.5,3.358-7.5,7.5c0,4.142,3.357,7.5,7.5,7.5h31.979l-48.298,48.301 c-2.929,2.929-2.929,7.678,0.001,10.607c1.464,1.464,3.384,2.196,5.303,2.196c1.919,0,3.839-0.733,5.304-2.197l48.298-48.301v31.98 c0,4.142,3.357,7.5,7.5,7.5c4.143,0,7.5-3.358,7.5-7.5V7.502C215.35,3.359,211.992,0.002,207.85,0.002z"/></symbol><symbol id="graphic" viewBox="0 0 512 512"><title>graphic</title><path d="m497 482h-467v-467c0-8.285156-6.714844-15-15-15s-15 6.714844-15 15v477.976562c0 10.488282 8.535156 19.023438 19.027344 19.023438h477.972656c8.285156 0 15-6.714844 15-15s-6.714844-15-15-15zm0 0"/><path d="m177.195312 206.367188c0-9.210938-7.5-16.699219-16.699218-16.699219h-94.371094c-9.210938 0-16.699219 7.488281-16.699219 16.699219v245.890624h127.769531zm0 0"/><path d="m325.195312 119.148438c0-9.210938-7.492187-16.699219-16.699218-16.699219h-94.371094c-9.210938 0-16.699219 7.488281-16.699219 16.699219v333.109374h127.769531zm0 0"/><path d="m473.164062 257.699219c0-9.210938-7.488281-16.703125-16.699218-16.703125h-94.359375c-9.210938 0-16.699219 7.492187-16.699219 16.703125v194.558593h127.757812zm0 0"/></symbol><symbol id="pie-chart" viewBox="0 0 490.4 490.4"><title>pie-chart</title><path d="M221.75,490.4V268.7H0.05C0.05,391.1,99.35,490.4,221.75,490.4z M179.55,443.1c-65.1-15.8-116.5-67.1-132.2-132.2h132.2 V443.1z"/><path d="M268.75,0c-122.5,0-221.8,99.3-221.8,221.7h221.7v221.7c122.5,0,221.7-99.3,221.7-221.7S391.15,0,268.75,0z"/></symbol><symbol id="pie-chart-1" viewBox="0 0 60 60"><title>pie-chart-1</title><path d="M53.268,11.097l-0.699-0.86L41.917,20.888l0.467,0.684c1.696,2.491,2.593,5.406,2.593,8.429s-0.896,5.938-2.593,8.429 l-0.467,0.684l10.651,10.651l0.699-0.86c4.326-5.324,6.709-12.038,6.709-18.903S57.594,16.421,53.268,11.097z"/><path d="M38.406,42.407C35.915,44.104,33,45,29.977,45c-7.192,0-13.386-5.125-14.727-12.187L15.096,32H0.023l0.113,1.103 C1.712,48.437,14.541,60,29.977,60c6.865,0,13.579-2.383,18.903-6.709l0.86-0.699L39.089,41.94L38.406,42.407z"/><path d="M29.977,4c4.825,0,9.564,1.358,13.644,3.871l-5.137,5.137C35.857,11.689,32.958,11,29.977,11 c-8.26,0-15.48,5.336-18.023,13H4.669C7.384,12.392,17.734,4,29.977,4 M29.977,0C14.541,0,1.712,11.563,0.136,26.897L0.023,28 h15.073l0.154-0.813C16.591,20.125,22.785,15,29.977,15c3.022,0,5.937,0.896,8.429,2.593l0.684,0.467L49.741,7.408l-0.86-0.699 C43.556,2.383,36.842,0,29.977,0L29.977,0z"/></symbol><symbol id="database" viewBox="0 0 58.201 58.201"><title>database</title><path d="M31.707,33.07c-0.87,0.027-1.74,0.042-2.606,0.042c-0.869,0-1.742-0.014-2.614-0.042 c-7.341-0.201-13.191-1.238-17.403-2.717C7.104,29.685,5.409,28.899,4.1,28v7.111v0.5v0.5V37.4c2.846,2.971,12.394,5.711,25,5.711 s22.154-2.74,25-5.711v-1.289v-0.5v-0.5V28c-1.318,0.905-3.028,1.697-5.025,2.367C44.865,31.839,39.027,32.87,31.707,33.07z"/><path d="M4.1,14.889V22v0.5V23v1.289c2.638,2.754,11.033,5.31,22.286,5.668c0.115,0.004,0.233,0.005,0.349,0.008 c0.326,0.009,0.651,0.018,0.982,0.023C28.174,29.996,28.635,30,29.1,30s0.926-0.004,1.383-0.011 c0.33-0.005,0.656-0.014,0.982-0.023c0.116-0.003,0.234-0.005,0.349-0.008c11.253-0.359,19.648-2.915,22.286-5.668V23v-0.5V22 v-7.111C49.233,18.232,38.944,20,29.1,20S8.968,18.232,4.1,14.889z"/><path d="M53.965,8.542C52.843,4.241,44.215,0,29.1,0C14.023,0,5.404,4.22,4.247,8.51C4.162,8.657,4.1,8.818,4.1,9v0.5v1.806 C6.937,14.267,16.417,17,29.1,17s22.164-2.733,25-5.694V9.5V9C54.1,8.832,54.044,8.681,53.965,8.542z"/><path d="M4.1,41v8.201c0,0.162,0.043,0.315,0.117,0.451c1.181,4.895,11.747,8.549,24.883,8.549c13.106,0,23.655-3.639,24.875-8.516 c0.08-0.144,0.125-0.309,0.125-0.484v-8.199c-4.135,2.911-12.655,5.199-25,5.199C16.754,46.201,8.234,43.911,4.1,41z"/></symbol><symbol id="writing" viewBox="0 0 512 512"><title>writing</title><path d="M352.459,220c0-11.046-8.954-20-20-20h-206c-11.046,0-20,8.954-20,20s8.954,20,20,20h206 C343.505,240,352.459,231.046,352.459,220z"/><path d="M126.459,280c-11.046,0-20,8.954-20,20c0,11.046,8.954,20,20,20H251.57c11.046,0,20-8.954,20-20c0-11.046-8.954-20-20-20 H126.459z"/><path d="M173.459,472H106.57c-22.056,0-40-17.944-40-40V80c0-22.056,17.944-40,40-40h245.889c22.056,0,40,17.944,40,40v123 c0,11.046,8.954,20,20,20c11.046,0,20-8.954,20-20V80c0-44.112-35.888-80-80-80H106.57c-44.112,0-80,35.888-80,80v352 c0,44.112,35.888,80,80,80h66.889c11.046,0,20-8.954,20-20C193.459,480.954,184.505,472,173.459,472z"/><path d="M467.884,289.572c-23.394-23.394-61.458-23.395-84.837-0.016l-109.803,109.56c-2.332,2.327-4.052,5.193-5.01,8.345 l-23.913,78.725c-2.12,6.98-0.273,14.559,4.821,19.78c3.816,3.911,9,6.034,14.317,6.034c1.779,0,3.575-0.238,5.338-0.727 l80.725-22.361c3.322-0.92,6.35-2.683,8.79-5.119l109.573-109.367C491.279,351.032,491.279,312.968,467.884,289.572z M333.776,451.768l-40.612,11.25l11.885-39.129l74.089-73.925l28.29,28.29L333.776,451.768z M439.615,346.13l-3.875,3.867 l-28.285-28.285l3.862-3.854c7.798-7.798,20.486-7.798,28.284,0C447.399,325.656,447.399,338.344,439.615,346.13z"/><path d="M332.459,120h-206c-11.046,0-20,8.954-20,20s8.954,20,20,20h206c11.046,0,20-8.954,20-20S343.505,120,332.459,120z"/></symbol><symbol id="paper" viewBox="0 0 488.3 488.3"><title>paper</title><path d="M314.25,85.4h-227c-21.3,0-38.6,17.3-38.6,38.6v325.7c0,21.3,17.3,38.6,38.6,38.6h227c21.3,0,38.6-17.3,38.6-38.6V124 C352.75,102.7,335.45,85.4,314.25,85.4z M325.75,449.6c0,6.4-5.2,11.6-11.6,11.6h-227c-6.4,0-11.6-5.2-11.6-11.6V124 c0-6.4,5.2-11.6,11.6-11.6h227c6.4,0,11.6,5.2,11.6,11.6V449.6z"/><path d="M401.05,0h-227c-21.3,0-38.6,17.3-38.6,38.6c0,7.5,6,13.5,13.5,13.5s13.5-6,13.5-13.5c0-6.4,5.2-11.6,11.6-11.6h227 c6.4,0,11.6,5.2,11.6,11.6v325.7c0,6.4-5.2,11.6-11.6,11.6c-7.5,0-13.5,6-13.5,13.5s6,13.5,13.5,13.5c21.3,0,38.6-17.3,38.6-38.6 V38.6C439.65,17.3,422.35,0,401.05,0z"/></symbol><symbol id="user" viewBox="0 0 258.75 258.75"><title>user</title><circle cx="129.375" cy="60" r="60"/><path d="M129.375,150c-60.061,0-108.75,48.689-108.75,108.75h217.5C238.125,198.689,189.436,150,129.375,150z"/></symbol><symbol id="visible-opened-eye-interface-option" viewBox="0 0 98.48 98.48"><title>visible-opened-eye-interface-option</title><path d="M97.204,45.788c-0.865-1.02-21.537-24.945-47.963-24.945c-26.427,0-47.098,23.925-47.965,24.946 c-1.701,2-1.701,4.902,0.001,6.904c0.866,1.02,21.537,24.944,47.964,24.944c26.426,0,47.098-23.926,47.964-24.946 C98.906,50.691,98.906,47.789,97.204,45.788z M57.313,35.215c1.777-0.97,4.255,0.143,5.534,2.485 c1.279,2.343,0.875,5.029-0.902,5.999c-1.776,0.971-4.255-0.143-5.535-2.485C55.132,38.871,55.535,36.185,57.313,35.215z M49.241,68.969c-18.46,0-33.995-14.177-39.372-19.729c3.631-3.75,11.898-11.429,22.567-16.021 c-2.081,3.166-3.301,6.949-3.301,11.021c0,11.104,9.001,20.105,20.105,20.105s20.106-9.001,20.106-20.105 c0-4.072-1.219-7.855-3.3-11.021C76.715,37.812,84.981,45.49,88.612,49.24C83.235,54.795,67.7,68.969,49.241,68.969z"/></symbol><symbol id="keyboard-buttons-or-visualization-button-of-nine-squares" viewBox="0 0 965.199 965.199"><title>keyboard-buttons-or-visualization-button-of-nine-squares</title><path d="M263.85,30c0-16.6-13.4-30-30-30h-202c-16.6,0-30,13.4-30,30v202.1c0,16.6,13.4,30,30,30h202.1c16.6,0,30-13.4,30-30V30 H263.85z"/><path d="M613.55,30c0-16.6-13.4-30-30-30h-202c-16.6,0-30,13.4-30,30v202.1c0,16.6,13.4,30,30,30h202c16.6,0,30-13.4,30-30V30z"/><path d="M963.25,30c0-16.6-13.4-30-30-30h-202c-16.601,0-30,13.4-30,30v202.1c0,16.6,13.399,30,30,30h202.1c16.601,0,30-13.4,30-30 V30H963.25z"/><path d="M263.85,381.6c0-16.6-13.4-30-30-30h-202c-16.6,0-30,13.4-30,30v202c0,16.6,13.4,30,30,30h202.1c16.6,0,30-13.4,30-30v-202 H263.85z"/><path d="M613.55,381.6c0-16.6-13.4-30-30-30h-202c-16.6,0-30,13.4-30,30v202c0,16.6,13.4,30,30,30h202c16.6,0,30-13.4,30-30V381.6z "/><path d="M963.25,381.6c0-16.6-13.4-30-30-30h-202c-16.601,0-30,13.4-30,30v202c0,16.6,13.399,30,30,30h202.1 c16.601,0,30-13.4,30-30v-202H963.25z"/><path d="M233.85,703.1h-202c-16.6,0-30,13.4-30,30v202.1c0,16.602,13.4,30,30,30h202.1c16.6,0,30-13.398,30-30V733.1 C263.85,716.6,250.45,703.1,233.85,703.1z"/><path d="M583.55,703.1h-202c-16.6,0-30,13.4-30,30v202.1c0,16.602,13.4,30,30,30h202c16.6,0,30-13.398,30-30V733.1 C613.55,716.6,600.149,703.1,583.55,703.1z"/><path d="M933.25,703.1h-202c-16.601,0-30,13.4-30,30v202.1c0,16.602,13.399,30,30,30h202.1c16.601,0,30-13.398,30-30V733.1 C963.25,716.6,949.85,703.1,933.25,703.1z"/></symbol><symbol id="bar-chart" viewBox="0 0 432 432"><title>bar-chart</title><g> <g> <rect y="177" width="73" height="104"/> </g> </g><g> <g> <circle cx="318" cy="314" r="24.2"/> </g> </g><g> <g> <path d="M318,263.6c-39.6,0-74,37-85.1,50.3c11.1,13.3,45.6,50.3,85.1,50.3s74-37,85.1-50.3C392,300.6,357.5,263.6,318,263.6z M318,354.1c-22.2,0-40.2-18-40.2-40.2s18-40.2,40.2-40.2s40.2,18,40.2,40.2C358.1,336.1,340.2,354.1,318,354.1z"/> </g> </g><g> <g> <path d="M300,5v178.7c5.9-0.9,11.8-1.3,17.7-1.3c18.8-0.1,37.3,4.1,54.3,12.1V5H300z"/> </g> </g><g> <g> <path d="M317.7,198.4c-63.1,0-114.3,51.2-114.3,114.3S254.6,427,317.7,427S432,375.8,432,312.7 C431.9,249.6,380.8,198.5,317.7,198.4z M318,380.3c-56.1,0-100-59.1-101.8-61.6c-2.1-2.8-2.1-6.6,0-9.4 c1.8-2.5,45.7-61.6,101.8-61.6s100,59.1,101.8,61.6c2.1,2.8,2.1,6.6,0,9.4C418,321.2,374.1,380.3,318,380.3z"/> </g> </g><g> <g> <path d="M150,107v174h41.4c5.4-21.5,16.3-41.3,31.6-57.3V107H150z"/> </g> </g></symbol><symbol id="analytics" viewBox="0 0 512.005 512.005"><title>analytics</title><path d="M224,170.669h-42.667c-5.888,0-10.667,4.779-10.667,10.667v128c0,5.888,4.779,10.667,10.667,10.667H224 c5.888,0,10.667-4.779,10.667-10.667v-128C234.667,175.448,229.888,170.669,224,170.669z"/><path d="M138.667,234.669H96c-5.888,0-10.667,4.779-10.667,10.667v64c0,5.888,4.779,10.667,10.667,10.667h42.667 c5.888,0,10.667-4.779,10.667-10.667v-64C149.333,239.448,144.555,234.669,138.667,234.669z"/><path d="M309.333,106.669h-42.667c-5.888,0-10.667,4.779-10.667,10.667v192c0,5.888,4.779,10.667,10.667,10.667h42.667 c5.888,0,10.667-4.779,10.667-10.667v-192C320,111.448,315.221,106.669,309.333,106.669z"/><path d="M505.749,475.587L378.411,348.248c30.123-36.779,48.256-83.755,48.256-134.912c0-117.632-95.701-213.333-213.333-213.333 S0,95.704,0,213.336s95.701,213.333,213.333,213.333c51.157,0,98.133-18.133,134.912-48.256l127.339,127.339 c4.16,4.16,9.621,6.251,15.083,6.251s10.923-2.091,15.083-6.251C514.091,497.411,514.091,483.928,505.749,475.587z M213.333,384.003c-94.101,0-170.667-76.565-170.667-170.667S119.232,42.669,213.333,42.669S384,119.235,384,213.336 S307.435,384.003,213.333,384.003z"/></symbol><symbol id="csv" viewBox="0 0 548.29 548.291"><title>csv</title><path d="M486.2,196.121h-13.164V132.59c0-0.399-0.064-0.795-0.116-1.2c-0.021-2.52-0.824-5-2.551-6.96L364.656,3.677 c-0.031-0.034-0.064-0.044-0.085-0.075c-0.629-0.707-1.364-1.292-2.141-1.796c-0.231-0.157-0.462-0.286-0.704-0.419 c-0.672-0.365-1.386-0.672-2.121-0.893c-0.199-0.052-0.377-0.134-0.576-0.188C358.229,0.118,357.4,0,356.562,0H96.757 C84.893,0,75.256,9.649,75.256,21.502v174.613H62.093c-16.972,0-30.733,13.756-30.733,30.73v159.81 c0,16.966,13.761,30.736,30.733,30.736h13.163V526.79c0,11.854,9.637,21.501,21.501,21.501h354.777 c11.853,0,21.502-9.647,21.502-21.501V417.392H486.2c16.966,0,30.729-13.764,30.729-30.731v-159.81 C516.93,209.872,503.166,196.121,486.2,196.121z M96.757,21.502h249.053v110.006c0,5.94,4.818,10.751,10.751,10.751h94.973v53.861 H96.757V21.502z M258.618,313.18c-26.68-9.291-44.063-24.053-44.063-47.389c0-27.404,22.861-48.368,60.733-48.368 c18.107,0,31.447,3.811,40.968,8.107l-8.09,29.3c-6.43-3.107-17.862-7.632-33.59-7.632c-15.717,0-23.339,7.149-23.339,15.485 c0,10.247,9.047,14.769,29.78,22.632c28.341,10.479,41.681,25.239,41.681,47.874c0,26.909-20.721,49.786-64.792,49.786 c-18.338,0-36.449-4.776-45.497-9.77l7.38-30.016c9.772,5.014,24.775,10.006,40.264,10.006c16.671,0,25.488-6.908,25.488-17.396 C285.536,325.789,277.909,320.078,258.618,313.18z M69.474,302.692c0-54.781,39.074-85.269,87.654-85.269 c18.822,0,33.113,3.811,39.549,7.149l-7.392,28.816c-7.38-3.084-17.632-5.939-30.491-5.939c-28.822,0-51.206,17.375-51.206,53.099 c0,32.158,19.051,52.4,51.456,52.4c10.947,0,23.097-2.378,30.241-5.238l5.483,28.346c-6.672,3.34-21.674,6.919-41.208,6.919 C98.06,382.976,69.474,348.424,69.474,302.692z M451.534,520.962H96.757v-103.57h354.777V520.962z M427.518,380.583h-42.399 l-51.45-160.536h39.787l19.526,67.894c5.479,19.046,10.479,37.386,14.299,57.397h0.709c4.048-19.298,9.045-38.352,14.526-56.693 l20.487-68.598h38.599L427.518,380.583z"/></symbol><symbol id="zip-file-format" viewBox="0 0 548.291 548.291"><title>zip-file-format</title><path d="M486.201,196.121h-13.166v-63.525c0-0.396-0.062-0.795-0.115-1.196c-0.021-2.523-0.825-5-2.552-6.964L364.657,3.677 c-0.033-0.031-0.064-0.042-0.085-0.075c-0.63-0.704-1.364-1.29-2.143-1.796c-0.229-0.154-0.461-0.283-0.702-0.418 c-0.672-0.366-1.387-0.671-2.121-0.892c-0.2-0.055-0.379-0.136-0.577-0.188C358.23,0.118,357.401,0,356.562,0H96.757 C84.894,0,75.256,9.649,75.256,21.502v174.613H62.092c-16.971,0-30.732,13.756-30.732,30.733v159.812 c0,16.968,13.761,30.731,30.732,30.731h13.164V526.79c0,11.854,9.638,21.501,21.501,21.501h354.776 c11.853,0,21.501-9.647,21.501-21.501V417.392h13.166c16.966,0,30.729-13.764,30.729-30.731V226.854 C516.93,209.877,503.167,196.121,486.201,196.121z M96.757,21.507h249.054v110.01c0,5.939,4.817,10.75,10.751,10.75h94.972v53.861 H96.757V21.507z M323.311,223.638v160.545h-36.447V223.638H323.311z M146.309,253.649v-30.011h116.474v20.967l-74.789,108.618 v0.944h75.985v30.016H139.165v-19.537l76.465-110.039v-0.958H146.309z M451.534,520.968H96.757V417.392h354.776V520.968z M455.276,310.586c-12.384,11.671-30.724,16.903-52.164,16.903c-4.775,0-9.05-0.23-12.388-0.709v57.402H354.76v-158.4 c11.192-1.914,26.909-3.336,49.061-3.336c22.399,0,38.349,4.284,49.077,12.861c10.236,8.097,17.145,21.438,17.145,37.161 C470.047,288.188,464.804,301.526,455.276,310.586z"/><path d="M405.738,249.838c-7.401,0-12.405,0.717-15.014,1.436v47.397c3.086,0.714,6.908,0.956,12.152,0.956 c19.286,0,31.203-9.775,31.203-26.201C434.08,258.655,423.837,249.838,405.738,249.838z"/></symbol><symbol id="txt-file-symbol" viewBox="0 0 548.291 548.291"><title>txt-file-symbol</title><path d="M486.201,196.124h-13.166V132.59c0-0.396-0.062-0.795-0.115-1.196c-0.021-2.523-0.825-5-2.552-6.963L364.657,3.677 c-0.033-0.031-0.064-0.042-0.085-0.075c-0.63-0.704-1.364-1.29-2.143-1.796c-0.229-0.154-0.461-0.283-0.702-0.418 c-0.672-0.366-1.387-0.671-2.121-0.892c-0.2-0.055-0.379-0.134-0.577-0.188C358.23,0.118,357.401,0,356.562,0H96.757 C84.894,0,75.256,9.649,75.256,21.502v174.616H62.09c-16.968,0-30.729,13.753-30.729,30.73v159.812 c0,16.961,13.761,30.731,30.729,30.731h13.166V526.79c0,11.854,9.638,21.501,21.501,21.501h354.776 c11.853,0,21.501-9.647,21.501-21.501V417.392h13.166c16.966,0,30.729-13.764,30.729-30.731V226.854 C516.93,209.872,503.167,196.124,486.201,196.124z M96.757,21.502h249.054v110.006c0,5.943,4.817,10.751,10.751,10.751h94.972 v53.864H96.757V21.502z M202.814,225.042h41.68l14.063,29.3c4.756,9.756,8.336,17.622,12.147,26.676h0.48 c3.798-10.242,6.9-17.392,10.95-26.676l13.587-29.3h41.449l-45.261,78.363l47.638,82.185h-41.927l-14.525-29.06 c-5.956-11.197-9.771-19.528-14.299-28.825h-0.478c-3.334,9.297-7.381,17.628-12.381,28.825l-13.336,29.06h-41.455l46.455-81.224 L202.814,225.042z M66.08,255.532v-30.489h123.382v30.489h-43.828v130.049h-36.434V255.532H66.08z M451.534,520.962H96.757v-103.57 h354.776V520.962z M471.764,255.532h-43.831v130.049h-36.442V255.532h-43.119v-30.489h123.393V255.532z"/></symbol><symbol id="ipad" viewBox="0 0 459.359 459.359"><title>ipad</title><path style="fill:#020202;" d="M162.152,45.256h242.922v155.985c1.209-0.106,2.381-0.362,3.605-0.362 c10.193,0,19.748,3.938,27.026,10.998c0.023-0.437,0.135-0.857,0.135-1.308V44.01c0-16.285-13.243-29.521-29.527-29.521H160.912 c-16.285,0-29.527,13.235-29.527,29.521v51.618h30.768V45.256z"/><path style="fill:#020202;" d="M226.788,233.405l21.16-21.137c0.052-0.06,0.12-0.091,0.174-0.135v-61.67 c0-17.518-14.249-31.76-31.767-31.76H109.767c-17.518,0-31.766,14.242-31.766,31.76v43.446h14.774 c6.009,0,11.621,1.503,16.691,3.981l0.3-48.42h107.588v99.904C219.224,243.424,222.334,237.851,226.788,233.405z"/><path style="fill:#020202;" d="M131.167,330.469v11.057h62.827v-11.057v-17.863c0-5.018,1.052-9.779,2.793-14.182h-65.62V330.469z M163.061,307.619c5.467,0,9.915,4.432,9.915,9.915c0,5.484-4.447,9.93-9.915,9.93c-5.469,0-9.916-4.445-9.916-9.93 C153.145,312.05,157.593,307.619,163.061,307.619z"/><path style="fill:#020202;" d="M92.775,213.139H19.164C8.593,213.139,0,221.732,0,232.294v139.473 c0,10.561,8.593,19.154,19.164,19.154h73.612c10.568,0,19.162-8.593,19.162-19.154V232.294 C111.937,221.732,103.344,213.139,92.775,213.139z M55.977,384.101c-4.506,0-8.143-3.65-8.143-8.143 c0-4.492,3.637-8.127,8.143-8.127c4.476,0,8.113,3.635,8.113,8.127C64.09,380.451,60.453,384.101,55.977,384.101z M88.862,361.026 H23.075V236.214h65.787V361.026z"/><path style="fill:#020202;" d="M451.24,304.495h-18.065c-2.261-8.924-5.784-17.322-10.396-25.029l12.807-12.814 c3.155-3.14,3.169-8.308,0-11.478l-21.168-21.152c-3.29-3.32-8.593-2.914-11.478,0c-13.07,13.069,0.271-0.271-12.799,12.8 c-0.023,0-0.039-0.015-0.06-0.03c-7.655-4.567-16-8.052-24.855-10.321c-0.031-0.015-0.06-0.015-0.091-0.03v-18.058 c0-4.477-3.635-8.111-8.12-8.111h-29.912c-4.484,0-8.12,3.635-8.12,8.111v18.058c-0.031,0.016-0.06,0.016-0.091,0.03 c-8.854,2.27-17.2,5.754-24.855,10.321c-0.022,0.016-0.037,0.03-0.06,0.03c-13.017-13.011,0.323,0.33-12.799-12.8 c-2.336-2.358-6.211-3.335-9.982-0.991c-2.05,1.262-20.957,20.446-22.663,22.144c-3.169,3.17-3.155,8.338,0,11.478l12.807,12.814 c-4.612,7.707-8.135,16.105-10.396,25.029H232.88c-4.484,0-8.12,3.635-8.12,8.111v29.926c0,4.477,3.635,8.113,8.12,8.113h18.064 c2.262,8.924,5.777,17.307,10.383,25.014c0,0,0.006,0,0.006,0.014l-12.799,12.801c-1.524,1.517-2.374,3.591-2.374,5.738 c0,2.148,0.857,4.221,2.374,5.739l21.167,21.152c1.585,1.577,3.666,2.372,5.738,2.372c2.074,0,4.155-0.795,5.739-2.372 l12.792-12.801c7.677,4.597,16.045,8.099,24.923,10.366c0.031,0.015,0.06,0.015,0.091,0.03v18.058c0,4.477,3.635,8.113,8.12,8.113 h29.912c4.484,0,8.12-3.637,8.12-8.113v-18.058c0.031-0.016,0.06-0.016,0.091-0.03c8.878-2.268,17.247-5.77,24.923-10.366 l12.792,12.801c3.178,3.153,8.301,3.153,11.478,0l21.168-21.152c3.169-3.171,3.155-8.338,0-11.478l-12.799-12.801 c0-0.014,0.006-0.014,0.006-0.014c4.605-7.707,8.121-16.09,10.382-25.014h18.065c4.484,0,8.119-3.637,8.119-8.113v-29.926 C459.359,308.129,455.725,304.495,451.24,304.495z M342.06,390.907c-34.921,0-63.33-28.409-63.33-63.337 c0-34.929,28.409-63.337,63.33-63.337c34.92,0,63.33,28.408,63.33,63.337C405.39,362.498,376.98,390.907,342.06,390.907z"/><path style="fill:#020202;" d="M342.06,297.644c-16.518,0-29.918,13.4-29.918,29.926c0,16.525,13.401,29.926,29.918,29.926 c16.517,0,29.918-13.401,29.918-29.926C371.978,311.044,358.577,297.644,342.06,297.644z"/></symbol><symbol id="ipad-1" viewBox="0 0 482.229 482.229"><title>ipad-1</title><path style="fill:#020202;" d="M166.316,75.172l257.166-1.092V248.26l-141.64,0.6v31.338h142.732 c17.018,0,30.854-13.844,30.854-30.856V74.08c0-17.011-13.837-30.856-30.854-30.856H166.316c-17.018,0-30.855,13.845-30.855,30.856 v54.854h31.198L166.316,75.172z"/><path style="fill:#020202;" d="M472.152,287.593h-190.31v36.493h173.977c14.585,0,26.41-11.824,26.41-26.417 C482.229,292.108,477.721,287.593,472.152,287.593z"/><path style="fill:#020202;" d="M224.672,152.894H112.484c-18.313,0-33.21,14.897-33.21,33.211v46.173h18.203 c4.851,0,9.438,0.999,13.743,2.581v-48.754c0-0.694,0.56-1.264,1.264-1.264h112.188c0.703,0,1.264,0.569,1.264,1.264v155.717 h-88.492v45.159h87.229c18.314,0,33.211-14.897,33.211-33.211V186.105C257.883,167.792,242.986,152.894,224.672,152.894z M168.578,372.382c-4.039,0-7.456-2.379-9.188-5.757c-0.733-1.426-1.248-2.979-1.248-4.686c0-5.765,4.681-10.435,10.436-10.435 c5.757,0,10.436,4.67,10.436,10.435c0,1.708-0.514,3.26-1.247,4.686C176.035,370.003,172.618,372.382,168.578,372.382z"/><path style="fill:#020202;" d="M97.478,252.245H19.998C8.969,252.245,0,261.222,0,272.25v146.756 c0,11.03,8.969,19.999,19.998,19.999h77.479c11.029,0,19.999-8.969,19.999-19.999V272.25 C117.477,261.222,108.507,252.245,97.478,252.245z M23.96,276.205h69.556v126.859H23.96V276.205z M58.745,429.287 c-2.199,0-4.164-0.89-5.663-2.262c-1.699-1.544-2.792-3.712-2.792-6.185c0-4.665,3.776-8.439,8.455-8.439 c4.648,0,8.425,3.774,8.425,8.439c0,2.473-1.093,4.64-2.778,6.185C62.895,428.397,60.93,429.287,58.745,429.287z"/></symbol><symbol id="email" viewBox="0 0 512 512"><title>email</title><path d="M509.286,224.131L460.8,178.998V85.311c0-4.719-3.823-8.533-8.533-8.533H351.01L277.692,8.511 C265.532-2.804,246.477-2.813,234.3,8.519l-73.31,68.258H59.733c-4.71,0-8.533,3.814-8.533,8.533v93.688L2.714,224.131 C0.981,225.735,0,228.005,0,230.369v0.896v271.078v1.101c0,4.719,3.823,8.533,8.533,8.533h1.101H499.55h2.816h1.101 c4.71,0,8.533-3.814,8.533-8.533v-1.101V231.265v-0.896C512,228.005,511.019,225.735,509.286,224.131z M460.8,202.303 l28.228,26.283L460.8,244.15V202.303z M366.933,153.578c4.71,0,8.533,3.814,8.533,8.533v129.101l-17.067,9.404V170.644h-34.133 V319.44l-17.067,9.412V162.111c0-4.719,3.823-8.533,8.533-8.533H366.933z M245.931,21.012c5.649-5.248,14.498-5.239,20.139-0.009 l59.904,55.774H186.027L245.931,21.012z M238.933,136.511v211.157l-17.067-9.404V127.978c0-4.719,3.823-8.533,8.533-8.533h51.2 c4.71,0,8.533,3.814,8.533,8.533v210.287l-18.765,10.342l1.698-0.939V136.511H238.933z M136.533,187.711 c0-4.719,3.823-8.533,8.533-8.533h51.2c4.71,0,8.533,3.814,8.533,8.533v141.133l-17.067-9.404V196.244H153.6v104.371 l-17.067-9.412V187.711z M51.2,202.303v41.847l-28.228-15.565L51.2,202.303z M17.067,494.911V244.825l38.519,21.248 c0.009,0,0.017,0.008,0.026,0.017l98.133,54.101l38.417,21.188l59.716,32.922l138.24,76.22l80.503,44.39H17.067z M494.933,488.818 L273.681,366.826l46.157-25.446l38.417-21.188l98.133-54.101c0.009-0.009,0.017-0.017,0.026-0.017l38.519-21.248V488.818z"/></symbol><symbol id="monitor" viewBox="0 0 512 512"><title>monitor</title><path d="M46.853,312.496V92.168c0-0.693,0.566-1.266,1.279-1.266h350.766c0.695,0,1.262,0.572,1.262,1.266v83.938H432.5V92.168 c0-18.521-15.066-33.602-33.603-33.602H48.132c-18.522,0-33.62,15.08-33.62,33.602v220.328c0,18.523,15.098,33.598,33.62,33.598 h252.664v-32.336H48.132C47.419,313.758,46.853,313.191,46.853,312.496z"/><path d="M12.459,391.035c0,13.387,10.851,24.25,24.255,24.25h264.082v-48.506H36.714C23.31,366.779,12.459,377.643,12.459,391.035z "/><path d="M352.854,129.543c0-5.197-4.198-9.396-9.395-9.396h-45.886c-5.192,0-9.392,4.198-9.392,9.396v136.153 c0,5.192,4.199,9.396,9.392,9.396h3.223v-41.055c0-29.939,22.909-54.348,52.058-57.334V129.543z"/><path d="M200.565,168.654c-5.196,0-9.396,4.197-9.396,9.395v87.647c0,5.192,4.199,9.396,9.396,9.396h45.881 c5.197,0,9.396-4.203,9.396-9.396v-87.647c0-5.197-4.198-9.395-9.396-9.395H200.565z"/><path d="M103.554,217.16c-5.197,0-9.396,4.198-9.396,9.395v39.142c0,5.192,4.198,9.396,9.396,9.396h45.881 c5.196,0,9.396-4.203,9.396-9.396v-39.142c0-5.196-4.199-9.395-9.396-9.395H103.554z"/><path d="M473.945,208.441H358.728c-14.147,0-25.596,11.467-25.596,25.596v193.805c0,14.131,11.448,25.592,25.596,25.592h115.218 c14.13,0,25.596-11.461,25.596-25.592V234.037C499.541,219.908,488.075,208.441,473.945,208.441z M470.709,394.715 c0,4.484-3.648,8.129-8.146,8.129h-92.466c-4.484,0-8.134-3.645-8.134-8.129V250.867c0-4.484,3.649-8.129,8.134-8.129h92.466 c4.498,0,8.146,3.645,8.146,8.129V394.715z"/></symbol><symbol id="mail" viewBox="0 0 44 44"><title>mail</title><g><g><path d="M43,6H1C0.447,6,0,6.447,0,7v30c0,0.553,0.447,1,1,1h42c0.552,0,1-0.447,1-1V7C44,6.447,43.552,6,43,6z M42,33.581 L29.612,21.194l-1.414,1.414L41.59,36H2.41l13.392-13.392l-1.414-1.414L2,33.581V8h40V33.581z"/></g></g><g><g><path d="M39.979,8L22,25.979L4.021,8H2v0.807L21.293,28.1c0.391,0.391,1.023,0.391,1.414,0L42,8.807V8H39.979z"/></g></g></symbol><symbol id="support" viewBox="0 0 512 512"><title>support</title><g> <g> <rect x="109.65" y="255" width="30" height="177"/> </g> </g><g> <g> <path d="M511.653,311V200h-69.188c-3.885-13.014-9.105-25.536-15.603-37.427l48.702-48.701L397.781,36.09L349.08,84.791 c-12.201-6.667-25.056-11.986-38.427-15.9V0h-110v24.031L186.828,0h-34.176v78.467l-28,26.046l-28-26.046V0H62.477L0.347,108 l56.305,97.876V444c0,37.495,30.505,68,68,68c37.495,0,68-30.505,68-68v-3.432c2.648,0.902,5.314,1.75,8,2.538V512h110v-68.891 c13.371-3.914,26.227-9.233,38.427-15.9l48.701,48.701l77.782-77.782l-48.701-48.701c6.667-12.201,11.986-25.056,15.9-38.427 H511.653z M162.653,444c0,20.953-17.047,38-38,38s-38-17.047-38-38V216h76V444z M182.459,163.433 c-0.047,0.037-0.094,0.072-0.141,0.109l0.045,0.057L169.477,186H79.828l-44.871-78l31.696-55.096v38.629l58,53.953l58-53.953 V52.904L214.348,108L182.459,163.433z M317.878,193.775c34.311,34.312,34.311,90.14,0,124.451 c-34.311,34.31-90.139,34.311-124.451,0L192.653,319V205.876l12.705-22.085C240.054,159.522,287.516,163.413,317.878,193.775z M433.136,398.128l-35.355,35.355l-44.155-44.155l-10.133,6.385c-15.738,9.916-32.95,17.039-51.159,21.17l-11.681,2.65V482h-50 v-62.466l-11.681-2.65c-8.995-2.041-17.813-4.84-26.319-8.346v-52.754c19.166,12.104,41.081,18.161,63,18.161 c30.217,0,60.435-11.502,83.438-34.506c46.008-46.008,46.008-120.869,0-166.877c-29.387-29.386-70.732-40.28-108.964-31.827 L248.958,108l-18.305-31.82V30h50v62.466l11.681,2.65c18.208,4.131,35.421,11.254,51.159,21.17l10.133,6.385l44.155-44.155 l35.355,35.355l-44.155,44.155l6.385,10.134c9.744,15.463,16.795,32.367,20.958,50.242L419.025,230h62.627v51h-62.466 l-2.65,11.681c-4.132,18.208-11.254,35.421-21.17,51.159l-6.385,10.133L433.136,398.128z"/> </g> </g></symbol><symbol id="support-1" viewBox="0 0 438.146 438.146"><title>support-1</title><path d="M14.8,233.873c8,0,14.8-6.4,14.8-14.8c0-51.6,20.8-98,54.8-132c33.6-33.6,80.4-54.8,132-54.8c38,0,74,11.6,104,31.6 c20,13.6,37.2,30.8,50.8,51.2l-16.8-6.4c-7.6-2.8-16,0.8-18.8,8.4c-2.8,7.6,0.8,16,8.4,18.8l52.8,20.8c3.6,1.6,7.6,1.6,11.2,0 c4-1.6,6.8-4.8,8.4-8.8l20.8-52.8c2.8-7.6-0.8-16-8.4-18.8c-7.6-2.8-16,0.8-18.8,8.4l-8.8,22.8c-16.4-27.2-38.4-50-64.4-67.2 c-34.8-23.6-76.4-36.8-120.4-36.8c-59.6,0-113.6,24-152.4,63.2c-39.6,38.8-64,92.8-64,152.4C0,227.073,6.8,233.873,14.8,233.873z "/><path d="M422.8,204.273c-8,0-14.8,6.4-14.8,14.8c0,51.6-20.8,98-54.8,132c-33.6,33.6-80.4,54.8-132,54.8c-38,0-74-11.6-104-31.6 c-20-13.6-37.2-30.8-50.8-51.2l16.8,6.8c7.6,2.8,16-0.8,18.8-8.4c2.8-7.6-0.8-16-8.4-18.8l-52.8-20.8c-3.6-1.6-7.6-1.6-11.2,0 c-4,1.6-6.8,4.8-8.4,8.8l-20,52.4c-2.8,7.6,0.8,16,8.4,18.8c7.6,2.8,16-0.8,18.8-8.4l8.8-22.8c16.4,27.2,38.4,50,64.4,67.2 c34.8,23.6,76.4,36.8,120.4,36.8c59.6,0,113.6-24,152.4-63.2c39.2-39.2,63.2-92.8,63.2-152.4 C437.6,211.073,430.8,204.273,422.8,204.273z"/><path d="M126,312.673h186c0-38.4-31.2-69.6-69.6-69.6h-47.2C157.2,243.073,126,274.273,126,312.673z"/><circle cx="218.8" cy="173.873" r="48.4"/></symbol><symbol id="support-2" viewBox="0 0 438.146 438.146"><title>support-2</title><path d="M184,165.073l-17.2-38c-16.4-36.8-60.8,21.6-56.8,49.2c9.2,67.2,127.6,176,193.2,140c14.8-8,34.4-36.8,19.6-45.6 l-38-20.4c-12.8-6.8-13.2-2.4-26.4,12c-3.2,3.6-9.2,12.4-16.4,10.8c-14.8-3.6-42.8-25.6-51.6-35.2c-4.4-4.8-22.8-27.2-22.8-34.4 C167.2,191.473,191.6,186.273,184,165.073z"/><path d="M14.8,233.873c8,0,14.8-6.4,14.8-14.8c0-51.6,20.8-98,54.8-132c33.6-33.6,80.4-54.8,132-54.8c38,0,74,11.6,104,31.6 c20,13.6,37.2,30.8,50.8,51.2l-16.8-6.4c-7.6-2.8-16,0.8-18.8,8.4c-2.8,7.6,0.8,16,8.4,18.8l52.8,20.8c3.6,1.6,7.6,1.6,11.2,0 c4-1.6,6.8-4.8,8.4-8.8l20.8-52.8c2.8-7.6-0.8-16-8.4-18.8c-7.6-2.8-16,0.8-18.8,8.4l-8.8,22.8c-16.4-27.2-38.4-50-64.4-67.2 c-34.8-23.6-76.4-36.8-120.4-36.8c-59.6,0-113.6,24-152.4,63.2c-39.6,38.8-64,92.8-64,152.4C0,227.073,6.8,233.873,14.8,233.873z "/><path d="M422.8,204.273c-8,0-14.8,6.4-14.8,14.8c0,51.6-20.8,98-54.8,132c-33.6,33.6-80.4,54.8-132,54.8c-38,0-74-11.6-104-31.6 c-20-13.6-37.2-30.8-50.8-51.2l16.8,6.4c7.6,2.8,16-0.8,18.8-8.4c2.8-7.6-0.8-16-8.4-18.8l-52.8-20.8c-3.6-1.6-7.6-1.6-11.2,0 c-4,1.6-6.8,4.8-8.4,8.8l-20,52.8c-2.8,7.6,0.8,16,8.4,18.8c7.6,2.8,16-0.8,18.8-8.4l8.8-22.8c16.4,27.2,38.4,50,64.4,67.2 c34.8,23.6,76.4,36.8,120.4,36.8c59.6,0,113.6-24,152.4-63.2c39.2-39.2,63.2-92.8,63.2-152.4 C437.6,211.073,430.8,204.273,422.8,204.273z"/></symbol><symbol id="list" viewBox="0 0 456 456"><title>list</title><path d="M95.152,116.8c2,2,5.6,2,7.6,0l29.2-29.2c2-2,2-5.6,0-7.6c-2-1.6-5.6-1.6-7.6,0.4l-25.2,25.2l-10.4-10.4 c-2-2-5.6-2-7.6,0s-2,5.6,0,7.6L95.152,116.8z"/><path d="M170.752,222.4h81.6c2.8,0,5.2-2.4,5.2-5.2s-2.4-5.2-5.2-5.2h-81.6c-2.8,0-5.2,2.4-5.2,5.2S167.952,222.4,170.752,222.4z "/><path d="M252.752,268h-82c-2.8,0-5.2,2.4-5.2,5.2c0,2.8,2.4,5.2,5.2,5.2h81.6c3.2,0,5.6-2.4,5.6-5.2S255.552,268,252.752,268z"/><path d="M95.152,237.6c2,2,5.6,2,7.6,0l29.2-29.2c2-2,2-5.6,0-7.6c-2-2-5.6-2-7.6,0.4l-25.2,25.2l-10.4-10.4c-2-2-5.6-2-7.6,0 s-2,5.6,0,7.6L95.152,237.6z"/><path d="M170.752,166.8h81.6c2.8,0,5.2-2.4,5.2-5.2c0-2.8-2.4-5.2-5.2-5.2h-81.6c-2.8,0-5.2,2.4-5.2,5.2 C165.552,164.4,167.952,166.8,170.752,166.8z"/><path d="M124.352,261.2l-25.2,25.2l-10-10c-2-2-5.6-2-7.6,0s-2,5.6,0,7.6l14,14c2,2,5.6,2,7.6,0l29.2-29.2c2-2,2-5.6,0-7.6 C129.952,259.2,126.352,259.2,124.352,261.2z"/><path d="M170.752,110.8h81.6c2.8,0,5.2-2.4,5.2-5.2c0-2.8-2.4-5.2-5.2-5.2h-81.6c-2.8,0-5.2,2.4-5.2,5.2 C165.552,108.4,167.952,110.8,170.752,110.8z"/><path d="M95.152,177.2c2,2,5.6,2,7.6,0l29.2-29.2c2-2,2-5.6,0-7.6c-2-1.6-5.6-1.6-7.6,0.4l-25.2,25.2l-10.4-10.4 c-2-2-5.6-2-7.6,0s-2,5.6,0,7.6L95.152,177.2z"/><path d="M413.152,340.8h-15.2c0-0.4-0.4-0.8-0.4-0.8c0-0.4-0.4-0.8-0.4-0.8l10.8-10.8c2.8-2.8,4.4-6.8,4.4-10.4 c0-3.6-1.2-7.2-4-10.4l-0.4-0.4l-13.2-13.2c-2.8-2.8-6.8-4.4-10.4-4.4c-3.6,0-7.2,1.2-10.4,4l-0.4,0.4l-10.8,10.4 c-0.4,0-0.8-0.4-0.8-0.4c-0.4,0-0.8-0.4-0.8-0.4v-15.2c0-4-1.6-8-4.4-10.4c-1.2-1.2-2.4-2-3.6-2.4v-6V78.4l-75.2-76.8 c-0.8-1.2-2.4-1.6-4-1.6h-206.4c-10.4,0-20,4.4-26.8,11.2c-6.8,6.8-11.2,16.4-11.2,26.8v302.8c0,20.8,17.2,38,38,38h171.6h5.6 c0.8,2.4,2,4.8,3.6,6.4c2.8,2.8,6.4,4.4,10.4,4.4h15.6c0,0.4,0.4,0.8,0.4,0.8c0,0.4,0.4,0.8,0.4,0.8l-10.8,10.8 c-2.8,2.8-4.4,6.8-4.4,10.4c0,4,1.6,7.6,4.4,10.4l13.2,13.2c2.8,2.8,6.8,4.4,10.4,4.4c4,0,7.6-1.6,10.4-4.4l10.8-10.8 c0.4,0,0.8,0.4,0.8,0.4c0.4,0,0.8,0.4,0.8,0.4v15.2c0,4,1.6,8,4.4,10.4c2.8,2.8,6.4,4.4,10.4,4.4h18.8c4,0,8-1.6,10.4-4.4 c2.8-2.8,4.4-6.4,4.4-10.4V426c0.8-0.4,1.2-0.4,2-0.8l10.8,10.8c2.8,2.8,6.8,4.4,10.4,4.4c4,0,7.6-1.6,10.4-4.4l13.2-13.2 c2.8-2.8,4.4-6.8,4.4-10.4c0-3.6-1.2-7.2-4-10.4l-0.4-0.4l-10.8-10.8c0-0.4,0.4-0.8,0.4-0.8c0-0.4,0.4-0.8,0.4-0.8h15.2 c4,0,8-1.6,10.4-4.4c2.8-2.8,4.4-6.4,4.4-10.4v-18.8C427.952,348,423.952,340.8,413.152,340.8z M279.552,18l27.6,27.6l27.6,27.6 h-36c-5.2,0-10-2-13.6-5.6c-3.6-3.6-5.6-8.4-5.6-13.6V18z M249.952,344.8c-2.8,2.8-4.4,6.4-4.4,10.4v12.4h-6.4v0.4h-171.6 c-14.8,0-27.2-12.4-27.2-27.2V37.6c0-7.6,3.2-14.4,8-19.2s11.6-8,19.2-8h201.2V54c0,8,3.2,15.6,8.8,21.2 c5.2,5.2,12.8,8.8,21.2,8.8h43.6v184.4v5.2h-15.2c-4,0-8,1.6-10.4,4.4c-2.8,2.8-4.4,6.4-4.4,10.4v15.2c-0.4,0-0.8,0.4-0.8,0.4 c-0.4,0-0.8,0.4-0.8,0.4l-10.8-10.8c-2.8-2.8-6.8-4.4-10.4-4.4c-3.6,0-7.2,1.2-10.4,4l-0.4,0.4l-13.2,13.2 c-2.8,2.8-4.4,6.8-4.4,10.4c0,3.6,1.2,7.2,4,10.4l0.4,0.4l10.8,10.8c0,0.4-0.4,0.8-0.4,0.8c0,0.4-0.4,0.8-0.4,0.8h-15.2 C256.352,340.4,252.352,342,249.952,344.8z M417.552,374.4h-0.4c0,1.2-0.4,2.4-1.2,3.2c-0.8,0.8-2,1.2-3.2,1.2h-18.4 c-2.4,0-4.4,1.6-5.2,4c-0.4,1.2-0.8,2.4-1.2,3.6c-0.4,1.2-1.2,2.4-1.6,4c-1.2,2-0.4,4.4,0.8,6l13.2,13.2c0.8,0.8,1.2,2,1.2,2.8 c0,1.2-0.4,2-1.2,3.2l-13.2,13.2c-0.8,0.8-2,1.2-3.2,1.2s-2-0.4-3.2-1.2l-13.2-13.2c-1.6-1.6-4.4-2-6.4-0.8 c-1.2,0.4-2.4,1.2-3.6,1.6c-1.2,0.4-2.4,0.8-4,1.6c-2.4,0.8-3.6,2.8-3.6,5.2V442c0,1.2-0.4,2.4-1.2,3.2c-0.8,0.8-2,1.2-3.2,1.2 h-18.8c-1.2,0-2.4-0.4-3.2-1.2c-0.8-0.8-1.2-2-1.2-3.2v-18.8c0-2.4-1.6-4.4-4-5.2c-1.2-0.4-2.4-0.8-3.6-1.2 c-1.2-0.4-2.4-1.2-4-1.6c-2-1.2-4.4-0.4-6,0.8l-13.2,13.2c-0.8,0.8-2,1.2-3.2,1.2s-2.4-0.4-3.2-1.2l-13.2-13.2 c-0.8-0.8-1.2-2-1.2-3.2s0.4-2,1.2-3.2l13.2-13.2c1.6-1.6,2-4.4,0.8-6.4c-0.4-1.2-1.2-2.4-1.6-3.6c-0.4-1.2-0.8-2.4-1.6-4 c-0.8-2.4-2.8-3.6-5.2-3.6h-18.8c-1.2,0-2.4-0.4-3.2-1.2c-0.8-0.8-1.2-2-1.2-3.2v-18.8c0-1.2,0.4-2.4,1.2-3.2 c0.8-0.8,2-1.2,3.2-1.2h19.6c2.4,0,4.4-1.6,5.2-4c0.4-1.2,0.8-2.4,1.2-3.6s1.2-2.4,1.6-4c1.2-2,0.4-4.4-0.8-6l-13.2-13.2 c-0.8-0.8-1.2-2-1.2-2.8c0-1.2,0.4-2.4,1.2-3.2l13.2-13.2c0.8-0.8,2-1.2,2.8-1.2c1.2,0,2,0.4,3.2,1.2l13.2,13.2 c1.6,1.6,4.4,2,6.4,0.8c1.2-0.4,2.4-1.2,3.6-1.6c1.2-0.4,2.4-0.8,4-1.6c2.4-0.8,3.6-2.8,3.6-5.2v-18.4c0-1.2,0.4-2.4,1.2-3.2 c0.8-0.8,2-1.2,3.2-1.2h18.8c1.2,0,2.4,0.4,3.2,1.2c0.8,0.8,1.2,2,1.2,3.2v18.8c0,2.4,1.6,4.4,4,5.2c1.2,0.4,2.4,0.8,3.6,1.2 c1.2,0.4,2.4,1.2,4,1.6c2,1.2,4.4,0.4,6-0.8l13.2-13.2c0.8-0.8,2-1.2,2.8-1.2c1.2,0,2.4,0.4,3.2,1.2l13.2,13.2 c0.8,0.8,1.2,2,1.2,2.8c0,1.2-0.4,2-1.2,3.2l-13.2,13.2c-1.6,1.6-2,4.4-0.8,6.4c0.4,1.2,1.2,2.4,1.6,3.6c0.4,1.2,0.8,2.4,1.6,4 c0.8,2.4,2.8,3.6,5.2,3.6h18.8c3.2,0,4.4,2.4,4.4,4.4V374.4z"/><path d="M363.952,337.6c-7.2-7.2-16.8-11.6-27.6-11.6s-20.8,4.4-27.6,11.6c-7.2,7.2-11.6,16.8-11.6,27.6s4.4,20.8,11.6,27.6 c7.2,7.2,16.8,11.6,27.6,11.6s20.8-4.4,27.6-11.6c7.2-7.2,11.6-16.8,11.6-27.6C375.552,354.4,371.152,344.4,363.952,337.6z M356.352,385.2c-5.2,5.2-12.4,8.4-20,8.4c-8,0-15.2-3.2-20-8.4c-5.2-5.2-8.4-12.4-8.4-20c0-8,3.2-15.2,8.4-20 c5.2-5.2,12.4-8.4,20-8.4c8,0,15.2,3.2,20,8.4c5.2,5.2,8.4,12.4,8.4,20C364.752,372.8,361.552,380,356.352,385.2z"/></symbol><symbol id="bulb" viewBox="0 0 431.76 431.76"><title>bulb</title><g> <g> <path d="M215.88,85.12C153.556,85.164,103.044,135.676,103,198c0.557,40.682,20.351,78.696,53.36,102.48V382 c0.027,0.932,0.216,1.853,0.56,2.72v0.64c0.138,0.33,0.299,0.651,0.48,0.96l28.16,41.92c1.49,2.205,3.979,3.524,6.64,3.52h46.56 c2.661,0.004,5.15-1.315,6.64-3.52l28.16-41.92c0.181-0.309,0.342-0.63,0.48-0.96v-0.64c0.344-0.867,0.533-1.788,0.56-2.72v-81.52 c33.01-23.784,52.803-61.798,53.36-102.48C327.918,135.987,277.891,85.603,215.88,85.12z M234.92,416h-38.08l-17.44-25.92h72.88 L234.92,416z M172.44,374.08v-21.2h86.88l0.08,21.2H172.44z M263,289.52l0,0.24c-2.259,1.487-3.613,4.015-3.6,6.72v40.64h-86.96 V296c0.013-2.705-1.341-5.233-3.6-6.72c-30.628-20.467-49.233-54.687-49.76-91.52c1.537-53.483,46.14-95.594,99.623-94.057 c51.323,1.475,92.582,42.734,94.057,94.057C312.312,234.679,293.697,269.005,263,289.52z"/> </g> </g><g> <g> <path d="M219.08,121.36c-4.418,0-8,3.582-8,8s3.582,8,8,8c33.251,0.044,60.196,26.989,60.24,60.24c0,4.418,3.582,8,8,8 s8-3.582,8-8C295.276,155.512,261.168,121.404,219.08,121.36z"/> </g> </g><g> <g> <path d="M81.48,189.6h-57.6c-4.418,0-8,3.582-8,8s3.582,8,8,8h57.6c4.418,0,8-3.582,8-8c0,0,0,0,0,0 C89.48,193.182,85.898,189.6,81.48,189.6z"/> </g> </g><g> <g> <path d="M407.88,189.6h-57.6c-4.418,0-8,3.582-8,8s3.582,8,8,8h57.6c4.418,0,8-3.582,8-8S412.298,189.6,407.88,189.6z"/> </g> </g><g> <g> <path d="M127.313,287.12c-2.874-3.356-7.924-3.747-11.28-0.873c-0.313,0.268-0.605,0.56-0.873,0.873v-0.16L74.28,328 c-3.356,2.874-3.747,7.924-0.873,11.28c2.874,3.356,7.924,3.747,11.28,0.873c0.313-0.268,0.605-0.56,0.873-0.873l40.88-40.88 C129.796,295.526,130.187,290.476,127.313,287.12z"/> </g> </g><g> <g> <path d="M356.607,56c-2.995-2.565-7.412-2.565-10.407,0l-40.88,40.88c-3.137,3.111-3.158,8.177-0.047,11.314 c1.513,1.526,3.577,2.379,5.727,2.366l-0.08-0.08c2.126,0.012,4.17-0.823,5.68-2.32l40.88-40.88 C360.354,63.924,359.963,58.874,356.607,56z"/> </g> </g><g> <g> <path d="M359.067,329.609c-0.45-0.609-0.984-1.151-1.587-1.609l-40.88-41.04c-2.874-3.356-7.924-3.747-11.28-0.873 c-3.356,2.874-3.747,7.924-0.873,11.28c0.268,0.313,0.56,0.605,0.873,0.873l40.88,40.88c2.626,3.553,7.636,4.304,11.189,1.678 S361.693,333.162,359.067,329.609z"/> </g> </g><g> <g> <path d="M126.44,96.88L85.56,56c-3.356-2.874-8.406-2.483-11.28,0.873c-2.565,2.995-2.565,7.412,0,10.407l40.88,40.88 c3.356,2.874,8.406,2.483,11.28-0.873C129.005,104.292,129.005,99.875,126.44,96.88z"/> </g> </g><g> <g> <path d="M215.88,0c-4.418,0-8,3.582-8,8v57.84c-0.133,4.416,3.34,8.104,7.756,8.236c0.081,0.002,0.162,0.004,0.244,0.004 c4.418,0,8-3.582,8-8V8C223.88,3.582,220.298,0,215.88,0z"/> </g> </g></symbol><symbol id="clock" viewBox="0 0 372.96 372.96"><title>clock</title><g> <g> <path d="M186.48,0C83.49,0,0,83.49,0,186.48s83.49,186.48,186.48,186.48s186.48-83.49,186.48-186.48 C372.828,83.545,289.415,0.132,186.48,0z M194.48,356.56v-32.8c0-4.418-3.582-8-8-8s-8,3.582-8,8v32.8 C90.759,352.372,20.588,282.201,16.4,194.48h32.8c4.418,0,8-3.582,8-8s-3.582-8-8-8H16.4C20.588,90.759,90.759,20.588,178.48,16.4 v32.8c0,4.418,3.582,8,8,8s8-3.582,8-8V16.4c87.721,4.188,157.892,74.359,162.08,162.08h-32.8c-4.418,0-8,3.582-8,8s3.582,8,8,8 h0.08h32.8C352.449,282.23,282.232,352.412,194.48,356.56z"/> </g> </g><g> <g> <path d="M270.88,260.88l-76.4-77.68v-80.72c0-4.418-3.582-8-8-8s-8,3.582-8,8v84c0.009,2.099,0.842,4.11,2.32,5.6l78.64,80 c3.093,3.159,8.161,3.213,11.32,0.12C273.919,269.107,273.973,264.039,270.88,260.88z"/> </g> </g></symbol><symbol id="gear" viewBox="0 0 439.832 439.832"><title>gear</title><g> <g> <path d="M225.36,259.98h-22.48c-1.417-4.285-3.155-8.457-5.2-12.48l16-16c3.102-3.12,3.102-8.16,0-11.28l-28.8-28.8 c-3.12-3.102-8.16-3.102-11.28,0l-16,16c-3.951-1.955-8.043-3.613-12.24-4.96v-22.48c0-4.418-3.582-8-8-8H96.4 c-4.418,0-8,3.582-8,8v23.36c-4.033,1.372-7.963,3.029-11.76,4.96L60,191.741c-3.12-3.102-8.16-3.102-11.28,0L20,220.46 c-3.102,3.12-3.102,8.16,0,11.28l16.8,16.8c-1.862,3.698-3.466,7.52-4.8,11.44H8c-4.418,0-8,3.582-8,8v40.72c0,4.418,3.582,8,8,8 h24c1.3,3.972,2.877,7.849,4.72,11.6L20,345.26c-3.102,3.12-3.102,8.16,0,11.28l28.8,28.8c3.12,3.102,8.16,3.102,11.28,0 l16.56-16.56c3.798,1.929,7.728,3.587,11.76,4.96v23.36c0,4.418,3.582,8,8,8h40.72c4.418,0,8-3.582,8-8v-22.88 c4.197-1.349,8.288-3.006,12.24-4.96l16,16c3.12,3.102,8.16,3.102,11.28,0l28.8-28.8c3.102-3.12,3.102-8.16,0-11.28l-16-16 c2.048-4.022,3.786-8.194,5.2-12.48h22.48c4.418,0,8-3.582,8-8v-40.72C233.122,263.654,229.684,260.11,225.36,259.98z M217.36,300.7h-20.48c-3.742-0.118-7.066,2.374-8,6c-1.702,6.912-4.397,13.541-8,19.68c-1.883,3.144-1.388,7.166,1.2,9.76 l14.48,14.48l-17.52,17.44l-14.64-14.64c-2.562-2.575-6.537-3.1-9.68-1.28c-6.115,3.594-12.716,6.289-19.6,8 c-3.657,0.903-6.19,4.234-6.08,8v20.96H104.4v-21.28c0.118-3.742-2.374-7.066-6-8c-6.72-1.747-13.158-4.441-19.12-8 c-3.144-1.883-7.166-1.388-9.76,1.2l-15.2,15.2l-17.44-17.28L52,335.58c2.575-2.562,3.1-6.537,1.28-9.68 c-3.54-5.915-6.233-12.297-8-18.96c-0.934-3.626-4.258-6.118-8-6H16.16v-24.96H38c3.742,0.118,7.066-2.374,8-6 c1.772-6.661,4.464-13.043,8-18.96c1.561-3.261,0.741-7.163-2-9.52l-15.12-15.36L54.4,208.7l15.2,15.2 c2.594,2.588,6.616,3.083,9.76,1.2c5.966-3.551,12.403-6.245,19.12-8c3.594-0.965,6.047-4.281,5.92-8v-21.12h24.72v20.96 c-0.11,3.766,2.423,7.097,6.08,8c6.884,1.71,13.485,4.405,19.6,8c3.143,1.82,7.118,1.295,9.68-1.28l14.64-14.72l17.52,17.44 l-14.56,14.56c-2.588,2.594-3.083,6.616-1.2,9.76c3.607,6.137,6.302,12.767,8,19.68c0.934,3.626,4.258,6.118,8,6h20.48 L217.36,300.7z"/> </g> </g><g> <g> <path d="M116.8,243.981c-24.742,0-44.8,20.058-44.8,44.8s20.058,44.8,44.8,44.8c24.742,0,44.8-20.058,44.8-44.8 C161.556,264.056,141.524,244.025,116.8,243.981z M116.8,317.34v0.24c-15.906,0-28.8-12.894-28.8-28.8s12.894-28.8,28.8-28.8 c15.906,0,28.8,12.894,28.8,28.8C145.468,304.592,132.613,317.341,116.8,317.34z"/> </g> </g><g> <g> <path d="M439.683,148.359c-0.025-0.127-0.052-0.253-0.083-0.378l-8.64-39.44c-0.956-4.304-5.214-7.023-9.52-6.08l-21.92,4.8 c-2.381-3.879-5.055-7.57-8-11.04L404,77.181c2.379-3.713,1.306-8.65-2.4-11.04l-34.4-22.16c-3.713-2.379-8.65-1.306-11.04,2.4 l-12.32,19.2c-4.285-1.071-8.644-1.82-13.04-2.24l-4.88-22.4c-0.99-4.306-5.284-6.994-9.589-6.003 c-0.111,0.025-0.221,0.053-0.331,0.083l-40,8.72c-4.303,0.956-7.023,5.214-6.08,9.52l5.6,22.72 c-3.663,2.203-7.165,4.662-10.48,7.36L245.28,70.7c-3.713-2.379-8.65-1.306-11.04,2.4L212,107.421 c-2.379,3.713-1.306,8.65,2.4,11.04l20,12.8c-1.006,4.051-1.728,8.168-2.16,12.32l-23.28,5.12c-4.304,0.956-7.023,5.214-6.08,9.52 l8.72,40c0.956,4.304,5.214,7.023,9.52,6.08l23.28-5.04c2.295,3.533,4.835,6.901,7.6,10.08l-12.8,20 c-2.379,3.713-1.306,8.65,2.4,11.04l34.24,22c3.713,2.379,8.65,1.306,11.04-2.4l12.64-19.76c4.126,1.073,8.323,1.848,12.56,2.32 l4.96,22.8c0.805,3.753,4.162,6.405,8,6.32h1.68l40-8.64c4.058-1.305,6.38-5.562,5.28-9.68l-4.88-22.4 c3.802-2.213,7.438-4.7,10.88-7.44l19.44,12.48c3.713,2.379,8.65,1.306,11.04-2.4l22-34.32c2.458-3.671,1.475-8.64-2.196-11.098 c-0.093-0.063-0.188-0.123-0.284-0.182l-18.96-12.16c1.135-4.36,1.937-8.799,2.4-13.28l21.92-4.8 C437.697,156.896,440.528,152.696,439.683,148.359z M402.32,148.541c-3.551,0.758-6.146,3.813-6.32,7.44 c-0.246,7.163-1.54,14.252-3.84,21.04c-1.164,3.479,0.188,7.305,3.28,9.28l17.28,11.04l-13.36,20.8l-17.44-11.2 c-3.073-1.967-7.088-1.605-9.76,0.88c-5.211,4.79-11.084,8.805-17.44,11.92c-3.313,1.612-5.097,5.278-4.32,8.88l4.48,20.48 l-24,5.28l-4.56-20.8c-0.758-3.551-3.813-6.146-7.44-6.32c-6.948-0.307-13.816-1.6-20.4-3.84c-0.826-0.272-1.691-0.407-2.56-0.4 c-2.72,0.005-5.251,1.391-6.72,3.68l-11.6,18.08l-20.8-13.36l11.2-18.4c1.967-3.073,1.605-7.088-0.88-9.76 c-4.659-5.056-8.591-10.737-11.68-16.88c-1.638-3.282-5.298-5.029-8.88-4.24l-21.28,4.64l-5.28-24l21.28-4.64 c3.579-0.766,6.181-3.863,6.32-7.52c0.506-6.946,1.987-13.787,4.4-20.32c1.123-3.456-0.224-7.234-3.28-9.2l-18.24-11.68 l13.36-20.8l17.6,11.36c3.091,2.009,7.155,1.645,9.84-0.88c5.058-4.781,10.768-8.821,16.96-12c3.217-1.655,4.923-5.263,4.16-8.8 l-4.56-20.8l24-5.28l4.48,20.48c0.805,3.753,4.162,6.405,8,6.32c7.071,0.188,14.077,1.4,20.8,3.6 c3.456,1.123,7.234-0.224,9.2-3.28l11.2-17.44l20.8,13.36l-11.12,17.28c-1.988,3.109-1.591,7.174,0.96,9.84 c4.775,5.235,8.763,11.137,11.84,17.52c1.638,3.282,5.298,5.03,8.88,4.24l20-4.32l5.28,24L402.32,148.541z"/> </g> </g><g> <g> <path d="M365.2,143.741c-4.422-20.62-22.671-35.333-43.76-35.28c-24.742-0.009-44.807,20.041-44.817,44.783 s20.041,44.807,44.783,44.817c24.742,0.009,44.807-20.041,44.817-44.783C366.224,150.071,365.881,146.874,365.2,143.741z M327.44,181.421h0.08c-15.505,3.142-30.702-6.599-34.32-22c-3.37-15.547,6.466-30.891,22-34.32c2.025-0.43,4.09-0.644,6.16-0.64 c15.906-0.023,28.819,12.852,28.842,28.758C350.222,166.813,340.733,178.57,327.44,181.421z"/> </g> </g></symbol><symbol id="agreement" viewBox="0 0 487.4 487.4"><title>agreement</title><path d="M378.6,107.39c9.9,0,19.6-2.6,28.1-7.7l80.7-47.7v-22.3l-90.8,52.9c-6.9,4-14.7,6.1-22.6,6l-120.2-1.4 c-6-2.2-10.8-3.6-12.6-4.3c-37.6-8.4-67-5.1-87,0.3c-15,4-31,2.5-45.2-4l-109-50v199.8l11.3,6.2c16.7,9.1,30,23.2,38.3,40.3 l-6.4,5.2c-17.2,12.5-20.9,36.7-9.6,53.8c6.3,8.3,15.2,13.6,25.4,15.4c1.2,0.1,3,0.2,4.3,0.2c3.7,0.2,7.3-0.2,10.4-0.7 c0.2,8.6,2.2,16,7.3,23c6.8,9.5,17.6,13.8,29.2,14.4c3,0.2,6.1,0.3,8.5,0.5c-1.1,9.1,1.5,18.4,7.2,26c6.3,8.3,15.2,13.6,25.4,15.4 c1.2,0.1,3,0.2,4.3,0.2c9.1,0.5,17.8-2.1,24.8-7.2l3.8-2.9c0.9,5.5,2.5,10.5,5.9,15c5.1,7,12.8,11.7,21.9,13.4 c1.2,0.1,2.4,0.1,3.7,0.2c7.3,0.4,14.7-1.7,21.1-6.2h0.6l4.5,6.3c7.9,11.4,24.3,14.1,35.7,6.2c9.5-6.8,13.3-20.1,9-30.7l0.8,1.2 c7.5,11.1,21.7,15.9,34.1,10.8c13.7-5.6,19.2-20.4,15.6-33.1c9.2,10.3,25,12.3,36.4,4.4l0.6-0.6c11.4-7.9,14.7-23,8.6-35 c9.9,9.1,25.7,10.5,37.1,2.6c13.3-9.7,16.8-28.4,7.1-41.8l-14.2-20.3l30.9-36c8.1-9.5,17.8-17.5,28.6-23.8l15.2-8.8v-23.8l-21,11.9 c-12,6.8-22.8,15.6-31.8,26.1l-33.2,38.5c-9.9-9.1-25.7-10.5-37.1-2.6c-13.3,9.7-16.8,28.4-7.1,41.8l0.5,1.3h-0.6 c-9.4-6.6-22.2-7.3-32.3-0.5l-0.6,0.6c-8.9,6.2-13.1,17-11.2,27.5l-3.2,2.3c-8.9-4.7-19.9-4.7-28.8,1.5c-8.2,5.7-12.4,15.8-11.7,25 l-8.8,5.6c-6.6-1.6-14-0.1-19.7,3.8c-7,5.1-11.1,13.5-10.9,21.4l-4.4,2.8c-2.6,2.3-6.9,3.3-10.5,2.5s-7.2-2.8-9.5-6 c-2.3-2.6-3.3-6.9-2.5-10.5s2.8-7.2,6-9.5l47.7-35.9c2.5-1.7,3.9-4.1,4-7.1c0.3-5.5-4.4-10.2-9.8-10.2c-2.1,0-3.8,0.5-5.6,1.5 l-76.2,55.2c-4.4,2.8-9.4,4.4-14.8,3.5c-5.4-0.9-10.2-3.6-13-8c-6.3-8.3-4.4-21,4.5-27.2l90.8-64.8c2-1.8,3.4-4.3,3.4-7.6 c0.1-5.2-4.2-9.6-9.4-9.8c-3-0.1-5.4,1-7.4,3.3l-88.9,64.3c-2.5,1.1-3.8,2.9-5.7,4.6c-10.7,6.8-26.5,5.3-32.2-2.3 c-5.7-8.2-4.5-19.2,2.6-26.1l8.9-6.2l98.8-67.4c2.5-1.7,3.9-4.1,4-7.1c0.2-3.3-1.4-6.4-4.1-8.3c-3.5-2.5-7-2.6-10.7-0.4 l-105.8,71.9c-0.7,1.2-1.9,1.7-2.6,2.3l-10.2,7.4c-8.3,6.3-21,4.4-27.2-4.5c-6.3-8.3-4.4-21,4.5-27.2l199.5-146.9 c16,9.4,27.8,28.3,27.8,28.3c19.6,61.4,44,61.9,58.8,54.5c7.7-3.8,11.2-12.9,8.5-21.1c-7.8-23.7-12.3-69.6-12.3-69.6 c-5.5-11.9-23.1-24.4-42.7-34.6l64.1,1L378.6,107.39z"/></symbol><symbol id="medal" viewBox="0 0 489.183 489.183"><title>medal</title><path d="M425.054,220.813l-23.9-32.7c-1.5-2.1-1.6-5-0.1-7.1l23.4-33c2.1-3,1.1-7.2-2.1-8.9l-35.7-19.1c-2.3-1.2-3.6-3.8-3.1-6.4 l6.7-39.9c0.6-3.6-2.1-7-5.8-7.1l-40.4-1.7c-2.6-0.1-4.9-1.9-5.6-4.4l-11.2-39c-1-3.5-4.9-5.4-8.3-3.9l-37.2,16 c-2.4,1-5.2,0.4-7-1.5l-27-30.1c-2.5-2.7-6.7-2.7-9.2,0.1l-26.6,30.5c-1.7,2-4.5,2.6-6.9,1.6l-37.4-15.4c-3.4-1.4-7.2,0.5-8.2,4 l-10.7,39c-0.7,2.5-2.9,4.3-5.5,4.5l-40.4,2.3c-3.7,0.2-6.3,3.6-5.7,7.2l7.3,39.8c0.5,2.6-0.8,5.2-3,6.4l-35.4,19.6 c-3.2,1.8-4.1,6-2,8.9l23.9,32.7c1.5,2.1,1.6,5,0.1,7.1l-23.4,33c-2.1,3-1.1,7.2,2.1,8.9l35.7,19.1c2.3,1.2,3.6,3.8,3.1,6.4 l-6.7,39.9c-0.6,3.6,2.1,7,5.8,7.1l40.4,1.7c2.6,0.1,4.9,1.9,5.6,4.4l11.3,38.9c1,3.5,4.9,5.4,8.3,3.9l37.2-16 c2.4-1,5.2-0.4,7,1.5l27,30.1c2.5,2.7,6.7,2.7,9.2-0.1l26.6-30.5c1.7-2,4.5-2.6,6.9-1.6l37.4,15.4c3.4,1.4,7.2-0.5,8.2-4l10.7-39 c0.7-2.5,2.9-4.3,5.5-4.5l40.4-2.3c3.7-0.2,6.3-3.6,5.7-7.2l-7.3-39.8c-0.5-2.6,0.8-5.2,3-6.4l35.4-19.6 C426.354,228.013,427.254,223.813,425.054,220.813z M244.654,295.513c-60.5,0-109.8-49.3-109.8-109.8s49.3-109.8,109.8-109.8 s109.8,49.3,109.8,109.8C354.454,246.313,305.154,295.513,244.654,295.513z"/><path d="M343.554,366.513c-5.8,5.9-13.9,9.4-22.6,9.4c-3.1,0-6.2-0.5-9.1-1.3l-25.8-7.8l-19.9,18.2c-0.7,0.6-1.3,1.2-2,1.7 l32,99.2c1.1,3.5,5.6,4.3,7.9,1.4l23.3-29.9c1.1-1.5,3.1-2.1,4.8-1.6l36.3,10.6c3.5,1,6.7-2.3,5.6-5.7L343.554,366.513z"/><path d="M203.354,366.813l-25.8,7.8c-3,0.9-6,1.3-9.1,1.3c-8.7,0-16.7-3.5-22.6-9.4l-30.5,94.3c-1.1,3.5,2.1,6.7,5.6,5.7 l36.3-10.6c1.8-0.5,3.7,0.1,4.8,1.6l23.3,29.9c2.2,2.9,6.8,2.1,7.9-1.4l32-99.2c-0.7-0.5-1.4-1.1-2-1.7L203.354,366.813z"/><path d="M309.754,158.413l-41.4-3l-15.6-38.4c-2.9-7.2-13.2-7.2-16.1,0l-15.6,38.4l-41.4,3c-7.8,0.6-10.9,10.3-5,15.3l31.7,26.8 l-9.9,40.3c-1.9,7.6,6.4,13.6,13,9.5l35.2-21.9l35.2,21.9c6.6,4.1,14.9-1.9,13-9.5l-9.9-40.3l31.7-26.8 C320.654,168.713,317.554,159.013,309.754,158.413z"/></symbol><symbol id="target" viewBox="0 0 489 489"><title>target</title><path d="M400.75,334.1c-51.5-19.7-82.4-39.8-82.4-39.8l-39.7,125.6l-5.4,17l-17.8-50.4c40.9-57-3.1-59.7-10.7-59.8l0,0h-0.1h-0.1 h-0.1h-0.1l0,0c-7.6,0.1-51.6,2.8-10.7,59.8l-17.8,50.4l-5.4-17l-39.7-125.6c0,0-30.9,20.1-82.4,39.8 c-56.9,20.6-53.4,67.3-54.5,154.9h210.4h0.5h210.4C453.95,401.4,457.45,354.7,400.75,334.1z"/><path d="M246.05,103.4l23.1-23.1c-28.4-9.6-61-3.1-83.6,19.5c-31.7,31.7-31.7,83.2,0,114.9s83.2,31.7,114.9,0 c22.6-22.6,29.1-55.2,19.5-83.6l-23.1,23.1c0.8,14.8-4.4,29.9-15.7,41.2c-21.1,21.1-55.2,21.1-76.3,0s-21.1-55.2,0-76.3 C216.15,107.8,231.25,102.6,246.05,103.4z"/><path d="M339.85,254.1c44.7-44.7,52.1-112.6,22-165l-22.1,22.1c18.9,39.8,11.9,88.9-21,121.8c-41.9,41.9-109.7,41.9-151.6,0 s-41.9-109.7,0-151.6c33-32.9,82-40,121.8-21l22.1-22.1c-52.3-30-120.3-22.7-165,22c-53.5,53.5-53.5,140.2,0,193.8 C199.65,307.6,286.35,307.6,339.85,254.1z"/><path d="M250.45,130.3c-2.4-0.7-4.9-1-7.5-1c-15.5,0-28,12.5-28,28s12.5,28,28,28s28-12.5,28-28c0-2.6-0.4-5.1-1-7.5l78.1-78.1 l12.6,1.7l39.5-39.5l-29.9-4l-4-29.9l-39.4,39.5l1.7,12.6L250.45,130.3z"/></symbol><symbol id="businessman" viewBox="0 0 297 297"><title>businessman</title><path d="M148.51,117.216c32.317,0,58.608-26.291,58.608-58.608S180.827,0,148.51,0c-32.317,0-58.608,26.291-58.608,58.608 S116.193,117.216,148.51,117.216z"/><path d="m227.154,145.618c-0.025-0.008-0.073-0.026-0.098-0.032-7.631-1.864-30.999-5.133-30.999-5.133-2.638-0.812-5.457,0.585-6.406,3.188l-35.174,96.509c-2.029,5.567-9.903,5.567-11.932,0l-35.174-96.509c-0.766-2.102-2.75-3.42-4.876-3.42-0.504,0-24.531,3.369-32.53,5.358-21.858,5.435-35.645,26.929-35.645,49.329v80.302c0,12.034 9.756,21.79 21.79,21.79h184.782c12.034,0 21.79-9.756 21.79-21.79v-80.569c-0.001-22.303-14.328-42.096-35.528-49.023z"/><path d="m161.775,138.613c-1.404-1.53-3.456-2.299-5.532-2.299h-15.485c-2.076,0-4.129,0.77-5.532,2.299-2.173,2.368-2.489,5.789-0.946,8.462l8.278,12.479-3.875,32.69 7.631,20.3c0.744,2.042 3.631,2.042 4.375,0l7.631-20.3-3.875-32.69 8.278-12.479c1.541-2.673 1.225-6.094-0.948-8.462z"/></symbol><symbol id="car" viewBox="0 0 512 512"><title>car</title><g> <g> <path d="M110.933,287.834c-23.526,0-42.667,19.14-42.667,42.667c0,23.526,19.14,42.667,42.667,42.667 c23.526,0,42.667-19.14,42.667-42.667C153.6,306.975,134.46,287.834,110.933,287.834z M110.933,356.101 c-14.114,0-25.6-11.486-25.6-25.6s11.486-25.6,25.6-25.6s25.6,11.486,25.6,25.6S125.047,356.101,110.933,356.101z"/> </g> </g><g> <g> <path d="M503.467,287.834v-51.2c0-3.669-2.347-6.938-5.837-8.098l-48.145-16.051c-18.133-30.711-43.059-59.938-98.142-69.589 c-0.102-0.017-0.205-0.034-0.307-0.051c-101.726-14.063-178.099,8.883-227.132,68.224c-36.497,0.529-73.754,8.158-95.667,22.187 c-11.349,7.27-18.082,19.925-18.714,33.391l-0.99,21.188c-4.71,0-8.533,3.823-8.533,8.533v34.133c0,4.71,3.823,8.533,8.533,8.533 h34.133c4.736,0,8.525-3.891,8.533-8.627c0-0.043,0.009-0.085,0.009-0.137c0.128-32.879,26.812-59.503,59.725-59.503 c32.99,0,59.733,26.743,59.733,59.733c-0.614,5.18,3.473,8.533,8.533,8.533h153.6c4.736,0,8.525-3.891,8.533-8.627 c0-0.043,0.008-0.085,0.008-0.137c0.128-32.879,26.812-59.503,59.725-59.503c32.99,0,59.733,26.743,59.733,59.733 c-0.614,5.18,3.473,8.533,8.533,8.533h34.133c4.71,0,8.533-3.823,8.533-8.533v-34.133 C512,291.657,508.177,287.834,503.467,287.834z M273.067,206.768c0,2.355-1.911,4.267-4.267,4.267H157.517 c-3.942,0-5.734-4.847-2.825-7.501c29.611-26.991,67.268-42.428,113.673-46.532c2.5-0.222,4.702,1.792,4.702,4.301V206.768z M375.586,206.81c-0.026,2.338-1.929,4.224-4.267,4.224H294.4c-2.355,0-4.267-1.911-4.267-4.267v-46.592 c0-2.364,1.886-4.309,4.241-4.309c17.015-0.017,35.021,1.22,54.161,3.866c9.114,1.604,17.237,3.806,24.627,6.511 c1.698,0.623,2.782,2.27,2.765,4.079L375.586,206.81z M420.122,211.034h-23.202c-2.372,0-4.292-1.937-4.267-4.309l0.222-23.125 c0.034-3.524,4.053-5.436,6.895-3.354c9.225,6.741,16.896,14.771,23.731,23.885C425.634,206.972,423.671,211.034,420.122,211.034z "/> </g> </g><g> <g> <path d="M401.067,287.834c-23.526,0-42.667,19.14-42.667,42.667c0,23.526,19.14,42.667,42.667,42.667 c23.526,0,42.667-19.14,42.667-42.667C443.733,306.975,424.593,287.834,401.067,287.834z M401.067,356.101 c-14.114,0-25.6-11.486-25.6-25.6s11.486-25.6,25.6-25.6c14.114,0,25.6,11.486,25.6,25.6S415.181,356.101,401.067,356.101z"/> </g> </g></symbol><symbol id="car-1" viewBox="0 0 488.001 488.001"><title>car-1</title><path d="M462.6,214.404l-39.2-17.9l-34.6-55.2c-10-16-27.6-25.7-46.5-25.6H194.9c-17.1,0-33.3,7.9-43.7,21.5l-44.7,58.5 l-74.5,20.4c-18.9,5.2-32,22.5-32,42.1v28.5c0,24.1,19.2,44,43.3,44h6.4c7.7,29.7,38,47.5,67.7,39.8c19.5-5.1,34.8-20.3,39.8-39.8 h168c7.7,29.7,38,47.5,67.7,39.8c19.5-5.1,34.8-20.3,39.8-39.8h12c24.1,0,43.3-19.9,43.3-44v-32.5 C488.1,237.104,478.1,221.504,462.6,214.404z M103.4,352.104c-19.6,0-35.5-15.9-35.5-35.5c0-19.6,15.9-35.5,35.5-35.5 c19.6,0,35.5,15.9,35.5,35.5C139,336.104,123.1,352.004,103.4,352.104z M378.9,352.104c-19.6,0-35.5-15.9-35.5-35.5 c0-19.6,15.9-35.5,35.5-35.5s35.5,15.9,35.5,35.5C414.5,336.104,398.6,352.004,378.9,352.104z M444.7,310.704h-10.6 c-3.3-30.5-30.8-52.5-61.3-49.1c-25.9,2.8-46.3,23.3-49.1,49.1H158.6c-3.3-30.5-30.8-52.5-61.3-49.1 c-25.9,2.8-46.3,23.3-49.1,49.1h-5c-13.1,0-23.3-10.9-23.3-24v-28.5c-0.1-10.7,7-20,17.3-22.9l77.9-21.3c2.1-0.6,4-1.8,5.3-3.6 l46.6-61.1c6.7-8.6,17-13.6,27.9-13.6h147.4c12-0.1,23.3,6,29.6,16.2l36.2,57.8c1,1.7,2.6,3,4.3,3.8l41.8,19.1 c8.4,3.9,13.8,12.3,13.7,21.6v32.5h0.1C468,299.804,457.8,310.704,444.7,310.704z"/></symbol><symbol id="car-2" viewBox="0 0 512 512"><title>car-2</title><path d="m502 56c-2.628906 0-5.210938 1.070312-7.070312 2.929688-1.859376 1.859374-2.929688 4.441406-2.929688 7.070312s1.070312 5.210938 2.929688 7.070312c1.859374 1.859376 4.441406 2.929688 7.070312 2.929688s5.210938-1.070312 7.070312-2.929688c1.859376-1.859374 2.929688-4.441406 2.929688-7.070312s-1.070312-5.210938-2.929688-7.070312c-1.859374-1.859376-4.441406-2.929688-7.070312-2.929688zm0 0"/><path d="m467 422h-3.769531v-35.566406c0-29.980469-24.390625-54.371094-54.371094-54.371094h-24.4375l-28.167969-66.34375c-4.1875-9.871094-11.574218-17.6875-20.648437-22.472656v-37.90625l19.34375-50.804688c.433593-1.136718.65625-2.34375.65625-3.558594v-74.976562h106.0625c5.519531 0 10-4.476562 10-10s-4.480469-10-10-10h-96.472657c1.554688-4.382812 2.40625-9.09375 2.40625-14s-.851562-9.617188-2.40625-14h136.804688c5.523438 0 10-4.476562 10-10s-4.476562-10-10-10h-150.644531c-.359375 0-.710938.019531-1.058594.058594-6.933594-5.0625-15.46875-8.058594-24.691406-8.058594-23.160157 0-42 18.839844-42 42 0 11.566406 4.699219 22.054688 12.285156 29.65625-.179687.753906-.285156 1.535156-.285156 2.34375v76.976562c0 1.214844.21875 2.421876.652343 3.558594l19.347657 50.804688v32.683594c-.410157-.011719-.816407-.023438-1.226563-.023438h-115.40625c-18.292968 0-34.730468 10.878906-41.878906 27.71875l-28.164062 66.34375h-11.15625c-29.980469 0-54.371094 24.390625-54.371094 54.371094v35.566406h-18.402344c-24.8125 0-45 20.1875-45 45s20.1875 45 45 45h422c24.8125 0 45-20.1875 45-45s-20.1875-45-45-45zm-141.394531-338c3.445312 0 6.792969-.425781 10-1.214844v53.046875h-20v-53.042969c3.207031.785157 6.550781 1.210938 10 1.210938zm7.449219 71.835938-7.449219 19.5625-7.453125-19.5625zm-7.449219-135.835938c12.128906 0 22 9.867188 22 22s-9.871094 22-22 22c-12.132813 0-22-9.867188-22-22s9.867187-22 22-22zm12.238281 253.53125 24.847656 58.53125h-96.015625v-74.0625h47.703125c10.25 0 19.460938 6.097656 23.464844 15.53125zm-162.339844 0c4.003906-9.433594 13.21875-15.53125 23.46875-15.53125h47.703125v74.0625h-96.019531zm-92.101562 112.902344c0-18.953125 15.417968-34.371094 34.371094-34.371094h291.085937c18.953125 0 34.371094 15.417969 34.371094 34.371094v35.566406h-20.460938c-4.496093-17.699219-20.574219-30.84375-39.644531-30.84375-19.066406 0-35.144531 13.144531-39.640625 30.84375h-147.882813c-4.496093-17.699219-20.578124-30.84375-39.644531-30.84375-19.066406 0-35.148437 13.144531-39.644531 30.84375h-32.910156zm318.03125 35.566406h-36.613282c3.5625-6.457031 10.433594-10.84375 18.304688-10.84375 7.875 0 14.746094 4.386719 18.308594 10.84375zm-227.171875 0h-36.613281c3.5625-6.457031 10.4375-10.84375 18.308593-10.84375 7.871094 0 14.746094 4.386719 18.304688 10.84375zm292.738281 70h-422c-13.785156 0-25-11.214844-25-25s11.214844-25 25-25h422c13.785156 0 25 11.214844 25 25s-11.214844 25-25 25zm0 0"/><path d="m64 457c-2.628906 0-5.210938 1.070312-7.070312 2.929688-1.859376 1.859374-2.929688 4.441406-2.929688 7.070312s1.070312 5.210938 2.929688 7.070312c1.859374 1.859376 4.441406 2.929688 7.070312 2.929688s5.210938-1.070312 7.070312-2.929688c1.859376-1.859374 2.929688-4.441406 2.929688-7.070312s-1.070312-5.210938-2.929688-7.070312c-1.859374-1.859376-4.441406-2.929688-7.070312-2.929688zm0 0"/><path d="m256 457c-2.628906 0-5.210938 1.070312-7.070312 2.929688-1.859376 1.859374-2.929688 4.441406-2.929688 7.070312s1.070312 5.210938 2.929688 7.070312c1.859374 1.859376 4.441406 2.929688 7.070312 2.929688s5.210938-1.070312 7.070312-2.929688c1.859376-1.859374 2.929688-4.441406 2.929688-7.070312s-1.070312-5.210938-2.929688-7.070312c-1.859374-1.859376-4.441406-2.929688-7.070312-2.929688zm0 0"/><path d="m192 457c-2.628906 0-5.210938 1.070312-7.070312 2.929688-1.859376 1.859374-2.929688 4.441406-2.929688 7.070312s1.070312 5.210938 2.929688 7.070312c1.859374 1.859376 4.441406 2.929688 7.070312 2.929688s5.210938-1.070312 7.070312-2.929688c1.859376-1.859374 2.929688-4.441406 2.929688-7.070312s-1.070312-5.210938-2.929688-7.070312c-1.859374-1.859376-4.441406-2.929688-7.070312-2.929688zm0 0"/><path d="m128 457c-2.628906 0-5.210938 1.070312-7.070312 2.929688-1.859376 1.859374-2.929688 4.441406-2.929688 7.070312s1.070312 5.210938 2.929688 7.070312c1.859374 1.859376 4.441406 2.929688 7.070312 2.929688s5.210938-1.070312 7.070312-2.929688c1.859376-1.859374 2.929688-4.441406 2.929688-7.070312s-1.070312-5.210938-2.929688-7.070312c-1.859374-1.859376-4.441406-2.929688-7.070312-2.929688zm0 0"/><path d="m448 457c-2.628906 0-5.210938 1.070312-7.070312 2.929688-1.859376 1.859374-2.929688 4.441406-2.929688 7.070312s1.070312 5.210938 2.929688 7.070312c1.859374 1.859376 4.441406 2.929688 7.070312 2.929688s5.210938-1.070312 7.070312-2.929688c1.859376-1.859374 2.929688-4.441406 2.929688-7.070312s-1.070312-5.210938-2.929688-7.070312c-1.859374-1.859376-4.441406-2.929688-7.070312-2.929688zm0 0"/><path d="m320 457c-2.628906 0-5.210938 1.070312-7.070312 2.929688-1.859376 1.859374-2.929688 4.441406-2.929688 7.070312s1.070312 5.210938 2.929688 7.070312c1.859374 1.859376 4.441406 2.929688 7.070312 2.929688s5.210938-1.070312 7.070312-2.929688c1.859376-1.859374 2.929688-4.441406 2.929688-7.070312s-1.070312-5.210938-2.929688-7.070312c-1.859374-1.859376-4.441406-2.929688-7.070312-2.929688zm0 0"/><path d="m384 457c-2.628906 0-5.210938 1.070312-7.070312 2.929688-1.859376 1.859374-2.929688 4.441406-2.929688 7.070312s1.070312 5.210938 2.929688 7.070312c1.859374 1.859376 4.441406 2.929688 7.070312 2.929688s5.210938-1.070312 7.070312-2.929688c1.859376-1.859374 2.929688-4.429687 2.929688-7.070312s-1.070312-5.210938-2.929688-7.070312c-1.859374-1.859376-4.441406-2.929688-7.070312-2.929688zm0 0"/><path d="m17.070312 163.738281 65.820313-65.816406c1.722656 5.394531 4.710937 10.472656 8.984375 14.746094 4.285156 4.285156 9.378906 7.277343 14.796875 8.996093l-103.738281 103.738282c-3.902344 3.902344-3.902344 10.234375 0 14.140625 1.953125 1.953125 4.511718 2.929687 7.074218 2.929687 2.558594 0 5.117188-.976562 7.070313-2.929687l109.085937-109.085938 46.519532 46.519531c5.828125 5.828126 13.578125 9.039063 21.820312 9.039063 4.785156 0 9.402344-1.089844 13.574219-3.136719l27.523437 27.519532c1.953126 1.953124 4.511719 2.929687 7.070313 2.929687s5.117187-.976563 7.070313-2.929687c3.90625-3.90625 3.90625-10.238282 0-14.140626l-27.519532-27.523437c2.046875-4.175781 3.136719-8.792969 3.136719-13.578125 0-8.242188-3.210937-15.992188-9.039063-21.816406l-72.574218-72.578125c-.015625-.015625-.03125-.027344-.050782-.042969-6.941406-6.902344-16.144531-10.703125-25.941406-10.703125-9.828125 0-19.070312 3.828125-26.023437 10.78125l-88.800781 88.800781c-3.90625 3.90625-3.90625 10.238282 0 14.144532 3.90625 3.902343 10.234374 3.902343 14.140624-.003907zm188.289063-8.582031c0 2.902344-1.128906 5.625-3.175781 7.675781v.003907c-.003906 0-.003906 0-.003906 0-2.050782 2.050781-4.777344 3.179687-7.675782 3.179687-2.898437 0-5.625-1.128906-7.675781-3.179687l-46.519531-46.519532 3.472656-3.472656c4.203125-4.203125 7.253906-9.246094 9.015625-14.746094l49.382813 49.382813c2.050781 2.050781 3.179687 4.777343 3.179687 7.675781zm-75.726563-80.222656.007813.007812c3.171875 3.175782 4.917969 7.390625 4.917969 11.878906 0 4.085938-1.464844 7.941407-4.121094 10.996094-.273438.21875-.535156.457032-.789062.710938-6.515626 6.515625-17.117188 6.511718-23.632813 0-6.515625-6.515625-6.515625-17.117188 0-23.632813.15625-.152343.292969-.316406.433594-.480469 3.101562-2.828124 7.082031-4.398437 11.308593-4.398437 4.484376 0 8.699219 1.746094 11.875 4.917969zm0 0"/></symbol><symbol id="union" viewBox="0 0 454.815 454.815"><title>union</title><path d="M320.021,92.61c-35.843,0-68.447,14.091-92.613,36.98c-24.169-22.896-56.767-36.98-92.609-36.98 C60.47,92.61,0,153.08,0,227.411c0,74.322,60.47,134.795,134.798,134.795c35.843,0,68.44-14.091,92.609-36.983 c24.166,22.898,56.771,36.983,92.613,36.983c74.322,0,134.795-60.473,134.795-134.795C454.815,153.08,394.343,92.61,320.021,92.61z M134.798,350.1c-67.658,0-122.693-55.047-122.693-122.689c0-67.651,55.041-122.695,122.693-122.695 c32.58,0,62.16,12.85,84.143,33.641c-20.965,23.768-33.727,54.947-33.727,89.055c0,34.117,12.761,65.29,33.727,89.063 C196.958,337.25,167.378,350.1,134.798,350.1z M197.319,227.411c0-30.683,11.405-58.708,30.088-80.241 c18.682,21.533,30.089,49.559,30.089,80.241c0,30.677-11.407,58.706-30.089,80.232 C208.724,286.117,197.319,258.087,197.319,227.411z M320.021,350.1c-32.58,0-62.164-12.85-84.146-33.638 c20.965-23.773,33.727-54.946,33.727-89.063c0-34.111-12.762-65.287-33.727-89.055c21.987-20.791,51.565-33.641,84.146-33.641 c67.654,0,122.689,55.042,122.689,122.696C442.71,295.042,387.675,350.1,320.021,350.1z M235.438,170.665h-17.901v-6.053h17.901 V170.665z M219.177,284.154h17.904v6.053h-17.904V284.154z M247.803,192.103h-39.345v-6.053h39.345V192.103z M251.586,211.52 h-50.053v-6.052h50.053V211.52z M253.347,225.392v6.05h-51.881v-6.05H253.347z M204.051,245.167h46.695v6.053h-46.695V245.167z M208.458,264.483h35.562v6.053h-35.562V264.483z"/></symbol><symbol id="check" viewBox="0 0 44 44"><title>check</title><path d="m22,0c-12.2,0-22,9.8-22,22s9.8,22 22,22 22-9.8 22-22-9.8-22-22-22zm12.7,15.1l0,0-16,16.6c-0.2,0.2-0.4,0.3-0.7,0.3-0.3,0-0.6-0.1-0.7-0.3l-7.8-8.4-.2-.2c-0.2-0.2-0.3-0.5-0.3-0.7s0.1-0.5 0.3-0.7l1.4-1.4c0.4-0.4 1-0.4 1.4,0l.1,.1 5.5,5.9c0.2,0.2 0.5,0.2 0.7,0l13.4-13.9h0.1c0.4-0.4 1-0.4 1.4,0l1.4,1.4c0.4,0.3 0.4,0.9 0,1.3z"/></symbol><symbol id="repair" viewBox="-26 0 511 512"><title>repair</title><path d="m458.800781 294.84375c0-24.203125-19.691406-43.894531-43.894531-43.894531h-51.144531v-68.640625c29.707031-17.203125 48.417969-49.152344 48.417969-83.925782 0-20.0625-6.078126-39.320312-17.585938-55.6875-11.234375-15.976562-26.792969-28.074218-44.996094-34.976562l-20.347656-7.71875v65.140625l-14.027344 8.660156-14.03125-8.660156v-65.140625l-20.34375 7.714844c-18.203125 6.90625-33.765625 19.003906-44.996094 34.980468-11.507812 16.367188-17.589843 35.621094-17.589843 55.6875 0 35.175782 19.011719 67.292969 49.195312 84.378907v20.207031h-63.605469l-80.675781 64.863281h-10.53125v-23.988281h-112.144531v268.15625h112.148438v-28.472656l54.683593 28.472656h216.917969v-.824219c20.179688-3.945312 35.453125-21.753906 35.453125-43.070312 0-7.757813-2.03125-15.046875-5.578125-21.378907 11.667969-7.898437 19.351562-21.253906 19.351562-36.375 0-7.941406-2.128906-15.390624-5.835937-21.828124 11.308594-7.945313 18.722656-21.082032 18.722656-35.925782 0-8.035156-2.183593-15.566406-5.96875-22.050781 11.132813-7.96875 18.40625-21 18.40625-35.703125zm-210.503906-196.460938c0-19.519531 8.664063-37.796874 22.859375-50.304687v33.8125l44.066406 27.214844 44.0625-27.210938v-33.816406c14.199219 12.507813 22.859375 30.785156 22.859375 50.304687 0 26.308594-15.523437 50.277344-39.550781 61.066407l-8.867188 3.984375v87.519531h-36.234374v-87.28125l-9.007813-3.933594c-24.414063-10.660156-40.1875-34.742187-40.1875-61.355469zm-165.683594 383.582032h-52.078125v-208.085938h52.078125zm293.199219 0h-201.128906l-62.035156-32.300782v-151.796874h21.105468l80.675782-64.859376h52.625v47.980469h147.851562c7.640625 0 13.859375 6.214844 13.859375 13.859375 0 7.640625-6.21875 13.859375-13.859375 13.859375h-87.519531v30.035157h75.082031c7.640625 0 13.855469 6.214843 13.855469 13.859374 0 7.640626-6.214844 13.859376-13.855469 13.859376h-87.964844v30.035156h75.078125c7.644531 0 13.859375 6.214844 13.859375 13.859375 0 7.640625-6.214844 13.859375-13.859375 13.859375h-88.851562v30.035156h75.082031c7.640625 0 13.859375 6.214844 13.859375 13.859375 0 7.640625-6.21875 13.855469-13.859375 13.855469zm0 0"/></symbol><symbol id="portfolio" viewBox="0 0 512 512"><title>portfolio</title><g> <g> <path d="M414.007,148.75c5.522,0,10-4.477,10-10V30c0-16.542-13.458-30-30-30h-364c-16.542,0-30,13.458-30,30v452 c0,16.542,13.458,30,30,30h364c16.542,0,30-13.458,30-30v-73.672c0-5.523-4.478-10-10-10c-5.522,0-10,4.477-10,10V482 c0,5.514-4.486,10-10,10h-364c-5.514,0-10-4.486-10-10V30c0-5.514,4.486-10,10-10h364c5.514,0,10,4.486,10,10v108.75 C404.007,144.273,408.485,148.75,414.007,148.75z"/> </g> </g><g> <g> <path d="M212.007,54c-50.729,0-92,41.271-92,92c0,26.317,11.11,50.085,28.882,66.869c0.333,0.356,0.687,0.693,1.074,1 c16.371,14.979,38.158,24.13,62.043,24.13c23.885,0,45.672-9.152,62.043-24.13c0.387-0.307,0.741-0.645,1.074-1 c17.774-16.784,28.884-40.552,28.884-66.869C304.007,95.271,262.736,54,212.007,54z M212.007,218 c-16.329,0-31.399-5.472-43.491-14.668c8.789-15.585,25.19-25.332,43.491-25.332c18.301,0,34.702,9.747,43.491,25.332 C243.405,212.528,228.336,218,212.007,218z M196.007,142v-6.5c0-8.822,7.178-16,16-16s16,7.178,16,16v6.5c0,8.822-7.178,16-16,16 S196.007,150.822,196.007,142z M269.947,188.683c-7.375-10.938-17.596-19.445-29.463-24.697c4.71-6.087,7.523-13.712,7.523-21.986 v-6.5c0-19.851-16.149-36-36-36s-36,16.149-36,36v6.5c0,8.274,2.813,15.899,7.523,21.986 c-11.867,5.252-22.088,13.759-29.463,24.697c-8.829-11.953-14.06-26.716-14.06-42.683c0-39.701,32.299-72,72-72s72,32.299,72,72 C284.007,161.967,278.776,176.73,269.947,188.683z"/> </g> </g><g> <g> <path d="M266.007,438h-54c-5.522,0-10,4.477-10,10s4.478,10,10,10h54c5.522,0,10-4.477,10-10S271.529,438,266.007,438z"/> </g> </g><g> <g> <path d="M266.007,382h-142c-5.522,0-10,4.477-10,10s4.478,10,10,10h142c5.522,0,10-4.477,10-10S271.529,382,266.007,382z"/> </g> </g><g> <g> <path d="M266.007,326h-142c-5.522,0-10,4.477-10,10s4.478,10,10,10h142c5.522,0,10-4.477,10-10S271.529,326,266.007,326z"/> </g> </g><g> <g> <path d="M88.366,272.93c-1.859-1.86-4.439-2.93-7.079-2.93c-2.631,0-5.211,1.07-7.07,2.93c-1.86,1.86-2.93,4.44-2.93,7.07 s1.069,5.21,2.93,7.07c1.87,1.86,4.439,2.93,7.07,2.93c2.64,0,5.21-1.07,7.079-2.93c1.86-1.86,2.931-4.44,2.931-7.07 S90.227,274.79,88.366,272.93z"/> </g> </g><g> <g> <path d="M88.366,328.93c-1.869-1.86-4.439-2.93-7.079-2.93c-2.631,0-5.2,1.07-7.07,2.93c-1.86,1.86-2.93,4.44-2.93,7.07 s1.069,5.21,2.93,7.07c1.87,1.86,4.439,2.93,7.07,2.93c2.64,0,5.21-1.07,7.079-2.93c1.86-1.86,2.931-4.44,2.931-7.07 S90.227,330.79,88.366,328.93z"/> </g> </g><g> <g> <path d="M88.366,384.93c-1.869-1.86-4.439-2.93-7.079-2.93c-2.631,0-5.2,1.07-7.07,2.93c-1.86,1.86-2.93,4.44-2.93,7.07 s1.069,5.21,2.93,7.07c1.859,1.86,4.439,2.93,7.07,2.93c2.64,0,5.22-1.07,7.079-2.93c1.86-1.86,2.931-4.44,2.931-7.07 S90.227,386.79,88.366,384.93z"/> </g> </g><g> <g> <path d="M266.007,270h-142c-5.522,0-10,4.477-10,10s4.478,10,10,10h142c5.522,0,10-4.477,10-10S271.529,270,266.007,270z"/> </g> </g><g> <g> <path d="M491.002,130.32c-9.715-5.609-21.033-7.099-31.871-4.196c-10.836,2.904-19.894,9.854-25.502,19.569L307.787,363.656 c-0.689,1.195-1.125,2.52-1.278,3.891l-8.858,79.344c-0.44,3.948,1.498,7.783,4.938,9.77c1.553,0.896,3.278,1.34,4.999,1.34 c2.092,0,4.176-0.655,5.931-1.948l64.284-47.344c1.111-0.818,2.041-1.857,2.73-3.052l125.841-217.963 C517.954,167.638,511.058,141.9,491.002,130.32z M320.063,426.394l4.626-41.432l28.942,16.71L320.063,426.394z M368.213,386.996 l-38.105-22l100.985-174.91l38.105,22L368.213,386.996z M489.054,177.693l-9.857,17.073l-38.105-22l9.857-17.073 c2.938-5.089,7.682-8.729,13.358-10.25c5.678-1.522,11.606-0.74,16.694,2.198c5.089,2.938,8.729,7.682,10.25,13.358 C492.772,166.675,491.992,172.604,489.054,177.693z"/> </g> </g></symbol><symbol id="team" viewBox="0 0 512.009 512.009"><title>team</title><g> <g> <circle cx="255.999" cy="64.005" r="64"/> </g> </g><g> <g> <path d="M351.871,301.957l-14.528-113.152c-1.632-16.416-15.328-28.8-31.808-28.8h-17.536c-4.256,0-8.32,1.696-11.328,4.672 l-20.672,20.672l-20.672-20.672c-3.008-2.976-7.072-4.672-11.328-4.672h-17.504c-16.512,0-30.208,12.384-31.808,28.384 l-14.56,113.6c-0.576,4.544,0.832,9.152,3.872,12.576c3.04,3.456,7.392,5.44,12,5.44h17.28l13.376,163.2 c1.6,16.384,15.328,28.8,31.84,28.8h35.04c16.512,0,30.208-12.416,31.872-29.088l13.344-162.912h17.248 c4.608,0,8.96-1.984,12-5.44C351.071,311.141,352.479,306.533,351.871,301.957z"/> </g> </g><g> <g> <circle cx="415.999" cy="64.005" r="64"/> </g> </g><g> <g> <path d="M95.999,0.005c-35.296,0-64,28.704-64,64s28.704,64,64,64c35.264,0,64-28.704,64-64S131.263,0.005,95.999,0.005z"/> </g> </g><g> <g> <path d="M511.871,301.957l-14.528-113.12c-1.632-16.448-15.296-28.832-31.808-28.832h-17.536c-4.256,0-8.32,1.696-11.328,4.672 l-20.672,20.672l-20.672-20.672c-3.008-2.976-7.072-4.672-11.296-4.672h-17.536c-1.984,0-3.776,0.704-5.664,1.056 c4.128,7.296,7.36,15.2,8.32,24.064l14.496,112.768c1.792,13.728-2.496,27.552-11.712,37.952 c-4.352,4.992-9.92,8.512-15.872,11.264l10.624,104.096c1.632,16.416,15.328,28.8,31.84,28.8h35.04 c16.512,0,30.208-12.416,31.872-29.088l13.312-130.912h17.248c4.608,0,8.96-1.984,12-5.44 C511.071,311.141,512.479,306.533,511.871,301.957z"/> </g> </g><g> <g> <path d="M139.967,335.685c-9.088-10.272-13.312-24.064-11.584-37.728l14.56-113.632c0.832-8.512,3.968-16.192,7.968-23.296 c-1.792-0.32-3.488-1.024-5.376-1.024h-17.536c-4.256,0-8.32,1.696-11.328,4.672l-20.672,20.672l-20.672-20.672 c-3.008-2.976-7.072-4.672-11.296-4.672H46.494c-16.512,0-30.208,12.384-31.808,28.384l-14.56,113.6 c-0.576,4.544,0.832,9.152,3.872,12.576c3.04,3.456,7.424,5.44,12,5.44h17.28l13.376,131.2c1.6,16.384,15.328,28.8,31.84,28.8 h35.04c16.512,0,30.208-12.416,31.872-29.088l10.624-103.84C150.047,344.293,144.447,340.741,139.967,335.685z"/> </g> </g></symbol><symbol id="team-1" viewBox="0 0 297 297"><title>team-1</title><path d="M46.169,61.873c3.286,2.507,7.98,1.876,10.488-1.408c22.071-28.917,55.546-45.5,91.843-45.5s69.772,16.584,91.843,45.5 c1.473,1.929,3.7,2.942,5.954,2.942c1.582,0,3.179-0.5,4.534-1.534c3.284-2.508,3.914-7.203,1.408-10.488 C227.312,18.729,189.501,0,148.5,0S69.688,18.729,44.762,51.385C42.255,54.67,42.885,59.365,46.169,61.873z"/><path d="m228.037,101.786c0,12.885 10.484,23.369 23.369,23.369s23.369-10.484 23.369-23.369-10.484-23.369-23.369-23.369-23.369,10.483-23.369,23.369z"/><path d="m275.322,132.91c-0.054-0.018-5.942-1.825-5.942-1.825-2.132-0.651-4.448-0.25-6.233,1.086l-11.741,8.791-11.741-8.791c-1.786-1.337-4.103-1.738-6.233-1.086 0,0-5.888,1.807-5.942,1.825-9.474,3.159-15.839,11.99-15.839,21.976v35.329c0,1.363 0.398,2.696 1.148,3.834l11.848,18.031v47.352c0,3.857 3.126,6.983 6.983,6.983h39.553c3.857,0 6.983-3.126 6.983-6.983v-47.352l11.848-18.031c0.749-1.139 1.148-2.472 1.148-3.834v-35.329c-5.68434e-14-9.986-6.366-18.817-15.84-21.976z"/><path d="m45.594,125.155c12.885,0 23.369-10.484 23.369-23.369s-10.484-23.369-23.369-23.369-23.37,10.483-23.37,23.369 10.484,23.369 23.37,23.369z"/><path d="m69.51,132.91c-0.054-0.018-5.942-1.825-5.942-1.825-2.133-0.651-4.447-0.25-6.233,1.086l-11.741,8.791-11.741-8.791c-1.785-1.337-4.103-1.738-6.233-1.086 0,0-5.888,1.807-5.942,1.825-9.474,3.159-15.839,11.99-15.839,21.976v35.329c0,1.363 0.398,2.696 1.148,3.834l11.848,18.031v47.352c0,3.857 3.126,6.983 6.983,6.983h39.552c3.857,0 6.983-3.126 6.983-6.983v-47.352l11.848-18.031c0.749-1.139 1.148-2.472 1.148-3.834v-35.329c0-9.986-6.366-18.817-15.839-21.976z"/><path d="m178.642,68.851c0-16.62-13.522-30.142-30.142-30.142s-30.142,13.522-30.142,30.142c0,16.621 13.522,30.142 30.142,30.142s30.142-13.521 30.142-30.142z"/><path d="m181.607,113.601l-.05-.016-8.603-2.64c-1.357-0.417-2.807,0.301-3.295,1.64l-18.09,49.635c-1.044,2.863-5.093,2.863-6.137,0l-18.09-49.635c-0.394-1.081-1.414-1.759-2.508-1.759-0.259,0-9.38,2.755-9.38,2.755-10.99,3.662-18.332,13.85-18.332,25.37v52.506c0,0.521 0.153,1.031 0.439,1.467l18.876,28.724v72.68c0,1.476 1.196,2.672 2.672,2.672h58.783c1.476,0 2.672-1.196 2.672-2.672v-72.68l18.876-28.724c0.286-0.436 0.439-0.946 0.439-1.467v-52.644c-0.001-11.47-7.372-21.641-18.272-25.212z"/><path d="m155.568,112.556c-0.747-0.814-1.84-1.224-2.946-1.224h-8.245c-1.105,0-2.198,0.41-2.946,1.224-1.157,1.261-1.325,3.082-0.504,4.505l4.407,6.644-2.063,17.405 4.063,10.808c0.396,1.087 1.933,1.087 2.33,0l4.063-10.808-2.063-17.405 4.407-6.644c0.822-1.423 0.654-3.244-0.503-4.505z"/></symbol><symbol id="gear-1" viewBox="0 0 478.703 478.703"><title>gear-1</title><path d="M454.2,189.101l-33.6-5.7c-3.5-11.3-8-22.2-13.5-32.6l19.8-27.7c8.4-11.8,7.1-27.9-3.2-38.1l-29.8-29.8 c-5.6-5.6-13-8.7-20.9-8.7c-6.2,0-12.1,1.9-17.1,5.5l-27.8,19.8c-10.8-5.7-22.1-10.4-33.8-13.9l-5.6-33.2 c-2.4-14.3-14.7-24.7-29.2-24.7h-42.1c-14.5,0-26.8,10.4-29.2,24.7l-5.8,34c-11.2,3.5-22.1,8.1-32.5,13.7l-27.5-19.8 c-5-3.6-11-5.5-17.2-5.5c-7.9,0-15.4,3.1-20.9,8.7l-29.9,29.8c-10.2,10.2-11.6,26.3-3.2,38.1l20,28.1 c-5.5,10.5-9.9,21.4-13.3,32.7l-33.2,5.6c-14.3,2.4-24.7,14.7-24.7,29.2v42.1c0,14.5,10.4,26.8,24.7,29.2l34,5.8 c3.5,11.2,8.1,22.1,13.7,32.5l-19.7,27.4c-8.4,11.8-7.1,27.9,3.2,38.1l29.8,29.8c5.6,5.6,13,8.7,20.9,8.7c6.2,0,12.1-1.9,17.1-5.5 l28.1-20c10.1,5.3,20.7,9.6,31.6,13l5.6,33.6c2.4,14.3,14.7,24.7,29.2,24.7h42.2c14.5,0,26.8-10.4,29.2-24.7l5.7-33.6 c11.3-3.5,22.2-8,32.6-13.5l27.7,19.8c5,3.6,11,5.5,17.2,5.5l0,0c7.9,0,15.3-3.1,20.9-8.7l29.8-29.8c10.2-10.2,11.6-26.3,3.2-38.1 l-19.8-27.8c5.5-10.5,10.1-21.4,13.5-32.6l33.6-5.6c14.3-2.4,24.7-14.7,24.7-29.2v-42.1 C478.9,203.801,468.5,191.501,454.2,189.101z M451.9,260.401c0,1.3-0.9,2.4-2.2,2.6l-42,7c-5.3,0.9-9.5,4.8-10.8,9.9 c-3.8,14.7-9.6,28.8-17.4,41.9c-2.7,4.6-2.5,10.3,0.6,14.7l24.7,34.8c0.7,1,0.6,2.5-0.3,3.4l-29.8,29.8c-0.7,0.7-1.4,0.8-1.9,0.8 c-0.6,0-1.1-0.2-1.5-0.5l-34.7-24.7c-4.3-3.1-10.1-3.3-14.7-0.6c-13.1,7.8-27.2,13.6-41.9,17.4c-5.2,1.3-9.1,5.6-9.9,10.8l-7.1,42 c-0.2,1.3-1.3,2.2-2.6,2.2h-42.1c-1.3,0-2.4-0.9-2.6-2.2l-7-42c-0.9-5.3-4.8-9.5-9.9-10.8c-14.3-3.7-28.1-9.4-41-16.8 c-2.1-1.2-4.5-1.8-6.8-1.8c-2.7,0-5.5,0.8-7.8,2.5l-35,24.9c-0.5,0.3-1,0.5-1.5,0.5c-0.4,0-1.2-0.1-1.9-0.8l-29.8-29.8 c-0.9-0.9-1-2.3-0.3-3.4l24.6-34.5c3.1-4.4,3.3-10.2,0.6-14.8c-7.8-13-13.8-27.1-17.6-41.8c-1.4-5.1-5.6-9-10.8-9.9l-42.3-7.2 c-1.3-0.2-2.2-1.3-2.2-2.6v-42.1c0-1.3,0.9-2.4,2.2-2.6l41.7-7c5.3-0.9,9.6-4.8,10.9-10c3.7-14.7,9.4-28.9,17.1-42 c2.7-4.6,2.4-10.3-0.7-14.6l-24.9-35c-0.7-1-0.6-2.5,0.3-3.4l29.8-29.8c0.7-0.7,1.4-0.8,1.9-0.8c0.6,0,1.1,0.2,1.5,0.5l34.5,24.6 c4.4,3.1,10.2,3.3,14.8,0.6c13-7.8,27.1-13.8,41.8-17.6c5.1-1.4,9-5.6,9.9-10.8l7.2-42.3c0.2-1.3,1.3-2.2,2.6-2.2h42.1 c1.3,0,2.4,0.9,2.6,2.2l7,41.7c0.9,5.3,4.8,9.6,10,10.9c15.1,3.8,29.5,9.7,42.9,17.6c4.6,2.7,10.3,2.5,14.7-0.6l34.5-24.8 c0.5-0.3,1-0.5,1.5-0.5c0.4,0,1.2,0.1,1.9,0.8l29.8,29.8c0.9,0.9,1,2.3,0.3,3.4l-24.7,34.7c-3.1,4.3-3.3,10.1-0.6,14.7 c7.8,13.1,13.6,27.2,17.4,41.9c1.3,5.2,5.6,9.1,10.8,9.9l42,7.1c1.3,0.2,2.2,1.3,2.2,2.6v42.1H451.9z"/><path d="M239.4,136.001c-57,0-103.3,46.3-103.3,103.3s46.3,103.3,103.3,103.3s103.3-46.3,103.3-103.3S296.4,136.001,239.4,136.001 z M239.4,315.601c-42.1,0-76.3-34.2-76.3-76.3s34.2-76.3,76.3-76.3s76.3,34.2,76.3,76.3S281.5,315.601,239.4,315.601z"/></symbol><symbol id="gear-2" viewBox="0 0 268.765 268.765"><title>gear-2</title><path style="fill-rule:evenodd;clip-rule:evenodd;" d="M267.92,119.461c-0.425-3.778-4.83-6.617-8.639-6.617 c-12.315,0-23.243-7.231-27.826-18.414c-4.682-11.454-1.663-24.812,7.515-33.231c2.889-2.641,3.24-7.062,0.817-10.133 c-6.303-8.004-13.467-15.234-21.289-21.5c-3.063-2.458-7.557-2.116-10.213,0.825c-8.01,8.871-22.398,12.168-33.516,7.529 c-11.57-4.867-18.866-16.591-18.152-29.176c0.235-3.953-2.654-7.39-6.595-7.849c-10.038-1.161-20.164-1.197-30.232-0.08 c-3.896,0.43-6.785,3.786-6.654,7.689c0.438,12.461-6.946,23.98-18.401,28.672c-10.985,4.487-25.272,1.218-33.266-7.574 c-2.642-2.896-7.063-3.252-10.141-0.853c-8.054,6.319-15.379,13.555-21.74,21.493c-2.481,3.086-2.116,7.559,0.802,10.214 c9.353,8.47,12.373,21.944,7.514,33.53c-4.639,11.046-16.109,18.165-29.24,18.165c-4.261-0.137-7.296,2.723-7.762,6.597 c-1.182,10.096-1.196,20.383-0.058,30.561c0.422,3.794,4.961,6.608,8.812,6.608c11.702-0.299,22.937,6.946,27.65,18.415 c4.698,11.454,1.678,24.804-7.514,33.23c-2.875,2.641-3.24,7.055-0.817,10.126c6.244,7.953,13.409,15.19,21.259,21.508 c3.079,2.481,7.559,2.131,10.228-0.81c8.04-8.893,22.427-12.184,33.501-7.536c11.599,4.852,18.895,16.575,18.181,29.167 c-0.233,3.955,2.67,7.398,6.595,7.85c5.135,0.599,10.301,0.898,15.481,0.898c4.917,0,9.835-0.27,14.752-0.817 c3.897-0.43,6.784-3.786,6.653-7.696c-0.451-12.454,6.946-23.973,18.386-28.657c11.059-4.517,25.286-1.211,33.281,7.572 c2.657,2.89,7.047,3.239,10.142,0.848c8.039-6.304,15.349-13.534,21.74-21.494c2.48-3.079,2.13-7.559-0.803-10.213 c-9.353-8.47-12.388-21.946-7.529-33.524c4.568-10.899,15.612-18.217,27.491-18.217l1.662,0.043 c3.853,0.313,7.398-2.655,7.865-6.588C269.044,139.917,269.058,129.639,267.92,119.461z M134.595,179.491 c-24.718,0-44.824-20.106-44.824-44.824c0-24.717,20.106-44.824,44.824-44.824c24.717,0,44.823,20.107,44.823,44.824 C179.418,159.385,159.312,179.491,134.595,179.491z"/></symbol></svg>